<svg xmlns="http://www.w3.org/2000/svg" viewBox="0 0 2421.1 836.5"><defs><style>.a,.d{fill-rule:evenodd;}.b,.d{fill:#fff;}.c,.e{fill:none;}.c{stroke:#fff;stroke-width:3px;}.e{stroke:#000;stroke-width:5px;}</style></defs><title>envelope_header</title><path class="a" d="M845.9,168.5H12.9c-17.3,15.1-14.7,28.2-6.8,29.4,24.1.7,601.2,1.5,625.3,2.2q1.2,124.2,2.3,248.4c12,0,24.1,9.1,36.1-13.5V200.1c21.8-.7,143-1.5,164.8-2.2C848.3,189.8,854.7,175.9,845.9,168.5Z"/><path class="a" d="M165.9,563.1c-6-1.4-14.6-2.4-19.5-3.5s-6.9-2.6-8.1-5c-2.2-4.4.2-9.3,6-12.2a19.6,19.6,0,0,1,7.5-2.1c2.9-.3,5.1-1.3,7.3-1.8a15.6,15.6,0,0,0-1.1-7.4c-1.4-1.5-6.6-3.1-15.4.5a31.2,31.2,0,0,0-4.2,1.8c-12.8,6.3-18.3,17.1-13,28,2.4,4.9,6.6,8.3,12.9,10.3l4.8,1.3c4.6,1.1,10.8,2.1,15.8,3s9,2.9,10.6,6.2.8,9.4-4,12.5a14,14,0,0,1-2.6,1.6,30.9,30.9,0,0,1-11.9,3.1,10.5,10.5,0,0,0-4.3.7l-.6.3a14.5,14.5,0,0,0,1.2,8.2c3.2,2.9,12,1.7,20.7-2.6,13.1-6.5,20.4-18.4,13.9-31.5C179,568.5,174.4,564.9,165.9,563.1Zm64-14a32.5,32.5,0,0,1-9,10.5c-8.3,6.2-19.1,8.4-32.7-9.9-11.4-15.2-10.9-26.4-3.4-33l1.7-1.4a25.4,25.4,0,0,1,8.8-4.1,14.4,14.4,0,0,0,4-1.8l.6-.4a18.6,18.6,0,0,0-2.9-7.5c-1.8-1.2-9.9-.5-17.4,5.1-6,4.5-11.2,10.8-12.7,19.2s.4,19.7,10.4,33.1c18.9,25.3,34.3,21.7,48,11.4,4.6-3.4,7.9-7.6,9.1-11.1a9.8,9.8,0,0,0-1-7.1A20.5,20.5,0,0,0,229.9,549.1Zm21.5-70.6c-15.2-14.6-24.5-17.4-35.1-6.4a30.1,30.1,0,0,0-5.8,8.7,31.2,31.2,0,0,0-2.2,11.7l-24.2-23.2c-4.8-4.6-6.5-5.8-8.4-6.3-4.6,4.7-7,8.1-5.8,11.9,2.8,2.4,6.2,5.5,11,10.1l43.5,41.8c9.3,9,17,16.6,23.4,23.1,5.9-6.1,7.2-7.4,7.5-10s-2.5-4.6-4.9-6.9l-34.6-33.3c-.1-5.1,1.2-11.5,5.6-16.1s8.7-5.2,16.2,1.4a37.3,37.3,0,0,1,5.2,4.5L270.3,516a18.1,18.1,0,0,0,6,4.2c6.6-6.8,7.7-8.4,7.6-10.6l-15.8-15Zm-36.1-43.9c5,3.9,8.4,4.2,11.8-.1s1.8-8.8-2.4-12.4-7.3-4.5-11.2.5-2.8,8.4,1.8,12Zm81.3,45.2-42.3-33.2c-5.2-4.1-7.2-5.4-9.6-5.9-4,5.1-6.6,9.2-5,12.5,3.3,2.4,7.3,5.3,13,9.8l22,17.3c7.6,5.9,14.8,11.8,21.1,16.8,5.4-7,6.7-8.8,6.2-10.6s-2.6-4.5-5.4-6.7Zm38.9-51.4a33.8,33.8,0,0,0-5.8-2.7c-.6,5.7-2.9,11.1-6.6,16.6-6.2,9.2-14.9,12.3-29.4,2.8,1.5-2,2.7-3.8,4.1-5.9a173.3,173.3,0,0,0,10.6-17.5c1.9-3.9,3.3-9.2,3.2-11.3a45.2,45.2,0,0,0-7.2-5.9l-6.5-4c-12.1-6.4-23.4-5.2-31.3,6.6-9.7,14.4-7.4,31.5,17.9,48.5,10.9,7.4,20.7,10.5,28.5,9.1s14.2-7.4,18.3-13.6a55.3,55.3,0,0,0,5.4-10.9c1.5-4.3,1.3-9.9-1.2-11.8Zm-49.8,10.9c-12.3-9.2-14.8-18.1-12.1-23.9a3.3,3.3,0,0,1,.7-1.3c3.9-5.9,9.7-6.2,17.5-1.9l2.9,1.8a14.4,14.4,0,0,1,3.9,3.5,7.7,7.7,0,0,1-1.2,3.6c-1.4,2.7-4.9,8.1-8.3,13.3Zm69.5-37.1c-14.7-8.4-36.9-21-52.4-30,2.4-4.2,4.6-7.9,6-10.9a6.3,6.3,0,0,0,.3-1.9c.4-2.3-.6-3.7-6.8-7.9-.9,1.9-2.6,4.9-4.3,7.9l-4.3,7.4c-3-1.7-6-3.5-8.8-5.3-11.5-7.3-11-14.5-7.4-20.7a26.6,26.6,0,0,1,3.7-5.1,12.1,12.1,0,0,0,2.1-2.4,10.6,10.6,0,0,0-1.8-3.3,14.8,14.8,0,0,0-2.6-2.4,3.6,3.6,0,0,0-2.4-.9c-2.1.5-5.3,3.2-8.5,8.8-5.6,9.6-8.5,24.7,8.9,36.7a73.5,73.5,0,0,0,9.9,6.5c-.8,2.8-1.5,4.8-1.8,6.1s-.3,3.3,4.5,6.8c1.9-.9,3.8-3.3,6.5-7.6l35.4,20.3c5.6,3.2,11.1,6.6,16.6,9.8a19.1,19.1,0,0,0,3.2,1.6,17.9,17.9,0,0,0,2-2.8,76.1,76.1,0,0,0,4-8.1c.2-1.4-1.3-2.2-2-2.6Zm29.6-64.9a43.5,43.5,0,0,0-6.1-2c.1,5.7-1.5,11.5-4.5,17.4-5,9.9-13.3,14-28.9,6.3,1.3-2.2,2.2-4,3.4-6.3,3.3-6.6,6.7-14.1,8.4-18.7s2.1-9.6,1.7-11.6a36.3,36.3,0,0,0-7.9-5l-6.9-3.2c-12.8-4.8-23.8-2.2-30.2,10.5-7.8,15.5-3.5,32.2,23.7,45.9,11.7,5.9,21.9,7.9,29.4,5.5s13.2-9.1,16.5-15.7a52.3,52.3,0,0,0,4-11.5C388.4,344.5,387.5,338.9,384.8,337.3Zm-48.1,17c-13.3-7.6-16.9-16.2-14.9-22.3a2.1,2.1,0,0,1,.5-1.3c3.2-6.3,8.8-7.4,17.1-4.1l3.1,1.4a14.8,14.8,0,0,1,4.3,3.1,7.9,7.9,0,0,1-.7,3.7c-1.1,2.8-3.9,8.6-6.7,14.1ZM418,275.8c-5.8-2.3-12.9-5.2-20.8-8.6L375,257.6c-16.4-7.1-27-7.7-34.5,9.5a32.7,32.7,0,0,0-2.3,9.7,35.1,35.1,0,0,0,1.4,12.5c-2.7-.5-5.2,0-6.3,2.6a2,2,0,0,0-.3,1.1c.1,3.8.3,6.1.8,7.2a33.7,33.7,0,0,1,11.6,3l24.7,10.6c11.2,4.9,20.4,9,28.2,12.6,3.2-7.9,4-9.5,3.3-11.8s-3-3.3-6.1-4.6l-45.2-19.6c-2.1-4.4-3-9.8-.7-15.1,3.7-8.7,9-9.7,20.1-4.8l38.5,16.6a13,13,0,0,0,6.4,1.4C418.2,280.2,418.7,277.8,418,275.8Z"/><path class="a" d="M75.9,343.7c0-8.4.4-21,.4-31.9v-7.1c0-13.5-3.8-21.2-15.5-22a52.4,52.4,0,0,0-5.6-.2c-10.5.3-20,4.4-23.3,7.6a4.7,4.7,0,0,0-.4,1.7,5.5,5.5,0,0,0,.2,1.8c.3,1.9.9,4.7,2.4,6.3a12.2,12.2,0,0,0,4.6-1.3c4.5-1.9,11-4.1,16.5-4.1s7.6,4,7.6,11.1v9a22.9,22.9,0,0,0-5.2-.5,32.4,32.4,0,0,0-4.4.2c-9.5.9-26.7,5.8-26.7,25.3,0,14.5,9.6,20.9,19.7,20.9,4.3,0,8.1-.4,11.6-2.1a22.8,22.8,0,0,0,4.6-3.6c1.5,2.2,5.6,5.7,9.4,5.7s7.1-1.9,8.4-3.7,0-3.6.2-5.8C75.3,351.9,75.9,343.7,75.9,343.7Zm-13.1-8.9a48.3,48.3,0,0,1-.3,7.6,5.4,5.4,0,0,1-.5,2.2c-2.2,2.7-7.4,5-12.1,5H48.8c-4.9-.4-8.4-3.2-8.4-11.3,0-9.9,6.5-13.3,14.1-14.5a45.3,45.3,0,0,1,5.2-.3h3.1Zm121.1,1.8V310c0-15.8-3.3-26.1-17.3-27.2h-3.1a29,29,0,0,0-9.7,1.6,32.2,32.2,0,0,0-11.3,6.3c-2.7-4.6-6.8-7.4-13.9-7.9a14.2,14.2,0,0,0-2.9-.2,30.2,30.2,0,0,0-9.9,1.6,31.2,31.2,0,0,0-10.9,6.2c-.7-2.7-1.9-4.8-4.9-4.8l-1.1.2c-3.5,1.6-5.6,2.7-6.4,3.6a34.5,34.5,0,0,1,1.9,11.9v28.3c0,11.8,0,21.6-.1,29.7,8.3,0,10.1,0,12.1-1.6s1.6-3.1,1.6-5.8V300.5c3.3-3.6,7.9-6.6,13.8-6.6,7.9,0,10.6,4.4,10.6,16.8v18.9c0,11.9,0,21.5-.4,29.6h6.5a33.7,33.7,0,0,0,5.5-.2,2.3,2.3,0,0,0,2.1-2.5h0V300.7c3.3-3.6,7.9-6.6,13.4-6.6,8.1,0,10.6,4.4,10.6,16.7v43.3a12.6,12.6,0,0,0,1.1,5.1c8.9,0,11.1-.5,13-1.9C183.9,351.6,183.9,344.5,183.9,336.6Z"/><path class="a" d="M759,396.2c0-13.9.2-25.4.4-35.2-9.8.2-11.8,0-13.9,1.8s-2,4.7-2,8.5v57.5c-3.1,3.7-9.6,6.6-15.9,6.3-8.7,0-13.7-3.5-13.7-19.7l1.8-33.1c0-9.2-.9-13.2-2-17.3s-2.6-6.2-6.5-6.2l-1.5.2c-4.7,2.2-7.4,3.8-8.5,5.1a45.3,45.3,0,0,1,2.6,15.9L698,417.7c.3,19.2,4.5,29.8,25.4,30.7a35.6,35.6,0,0,0,11.2-1.9,39.7,39.7,0,0,0,12.5-7.1c.7,3.1,2.3,5.4,5.6,5.4h1.2c4-1.9,6.4-3.1,7.3-4.2A39.6,39.6,0,0,1,759,427Zm55.8-36.3c-3.3-.5-6.3.4-9.8,1.5a36.3,36.3,0,0,0-12.2,7c-.9-3.1-2.4-5.4-5.6-5.4a3,3,0,0,0-1.3.2c-4.1,1.8-6.3,3-7.4,4.1a37.4,37.4,0,0,1,2.3,13.6v30.5c0,14.1-.2,25.7-.4,35.4,9.8,0,11.9-.2,14.3-1.8s1.6-4.1,1.6-7.2V380.2c3.6-3.8,8.3-5.8,14.3-5.8a16.6,16.6,0,0,1,3.2.3,31.3,31.3,0,0,0,4.3.4,3.2,3.2,0,0,0,1.7-.2,20.5,20.5,0,0,0,2.9-10.5c-.7-2.5-3.2-3.9-7.9-4.5ZM937.1,421V390.6c0-18-3.8-29.8-19.7-31a21.7,21.7,0,0,0-3.6-.2,34.9,34.9,0,0,0-11.1,1.8,37.7,37.7,0,0,0-13,7.2c-3-5.2-7.7-8.5-15.9-9a17.2,17.2,0,0,0-3.2-.2,31.7,31.7,0,0,0-11.4,1.8,38.2,38.2,0,0,0-12.4,7c-.8-3-2.2-5.4-5.6-5.4l-1.3.2c-4,1.8-6.3,3.1-7.2,4.2a38.5,38.5,0,0,1,2.1,13.5v32.4c0,13.5,0,24.7-.1,33.9,9.5,0,11.5,0,13.9-1.8s1.8-3.6,1.8-6.7V379.8c3.8-4.2,9-7.6,15.7-7.6,9,0,12.1,5.1,12.1,19.2V413c0,13.6,0,24.6-.4,33.8h7.4a44.2,44.2,0,0,0,6.3-.2,2.6,2.6,0,0,0,2.4-2.8h0V380c3.8-4.2,9-7.6,15.3-7.6,9.3,0,12.1,5,12.1,19.1V441a12.9,12.9,0,0,0,1.3,5.8c10.1,0,12.6-.5,14.8-2.1C937.1,438.1,937.1,430,937.1,421Z"/><path class="a" d="M14.3,38.1c.2,5.8.4,11.9.4,19.8v96.2a18,18,0,0,0,7.6,1.4,20.4,20.4,0,0,0,8.7-2.2c-.2-16.6-.4-33.7-.4-53.4H57.9c4.5,0,6.5-1.7,7.2-12.9H30.6V47.8H53.7c5.4,0,8.7,0,11.2-.7s3.4-2.9,4.2-11.7h-45C19.6,35.5,16,37.5,14.3,38.1ZM116.4,68.6c-3.3-.5-6.3.4-9.8,1.5a36.7,36.7,0,0,0-12.3,7c-.9-3.1-2.3-5.4-5.5-5.4a3,3,0,0,0-1.3.2c-4.2,1.8-6.3,3-7.4,4.1a42.2,42.2,0,0,1,2.3,13.6l-.2,30.5c0,14.1-.1,25.7-.3,35.4,9.7,0,11.9-.2,14.3-1.8s1.6-4.2,1.6-7.2V88.8c3.6-3.8,8.3-5.7,14.2-5.7a18.4,18.4,0,0,1,3.3.3,31.3,31.3,0,0,0,4.3.4,4.7,4.7,0,0,0,1.7-.2c2.1-3.2,2.8-7.9,2.8-10.5S121.1,69.2,116.4,68.6Zm49.8-.7c-19.8,0-34.7,13-34.7,47.9,0,15,3.3,26.3,9.6,32.8s16.1,8.7,24.6,8.7a63.5,63.5,0,0,0,13.7-1.8c5.1-1.3,10.3-5.1,10.5-8.7a44.8,44.8,0,0,0-1.1-7.2c-5.8,3.1-12.5,4.3-20.1,4.3-12.6,0-21.1-6.3-21.3-26.2,2.9.2,5.3.2,8.2.2,8.5,0,17.8-.3,23.4-1.1s10.9-2.7,12.7-4.1a48,48,0,0,0,1.1-10.7c0-3-.2-5.9-.4-8.6C190.8,77.8,182.5,67.9,166.2,67.9Zm10.5,37a10.1,10.1,0,0,1-4.2,1.1c-3.4.4-10.8.5-17.8.5h-6.9c.9-17.5,7.8-25.6,15-26.7a4.4,4.4,0,0,1,1.6-.2c8.1,0,12.1,5.3,13,15.4,0,1.2.2,2.5.2,4A19.6,19.6,0,0,1,176.7,104.9Zm39.9-76c-6.5,0-9.6,3.4-9.6,10.1s2.2,10.5,8.5,10.5,9.2-4.6,9.4-10.9S223.8,28.9,216.6,28.9Zm-9,45.1c.2,4.7.3,10.3.3,18.6v32c0,11-.1,21.7-.1,30.9,10.1-.2,12.6-.2,13.9-2s2.1-5.4,2.1-9.6V82.5c0-7.6-.2-10.3-1.4-12.8C215,69.7,209.4,70.2,207.6,74Zm52.3,64V44c0-9-.1-13.2-1.2-16.8-7.4,0-12.8.6-14.6,4.7.1,5.5.3,11.6.3,20.4v93.5a10.9,10.9,0,0,0,4.3,9c2,1.2,4.4,2.3,6.5,2.3,4.7-.1,8.2-2,9.6-4.1s0-4.2.2-6.7C259.4,147.4,259.9,138,259.9,138Zm20.4-64c.2,4.7.4,10.3.4,18.6v32c0,11-.2,21.7-.2,30.9,10.1-.2,12.7-.2,13.9-2s2.2-5.4,2.2-9.6V82.5c0-7.6-.2-10.3-1.4-12.8C287.8,69.7,282.2,70.2,280.3,74Zm9.1-45.1c-6.5,0-9.6,3.4-9.6,10.1s2.2,10.5,8.5,10.5,9.2-4.6,9.4-10.9S296.6,28.9,289.4,28.9Zm59,51.8a11.4,11.4,0,0,1,2.6-.2,27,27,0,0,1,10.8,2.4,20.5,20.5,0,0,0,4.9,1.1h.9a21.4,21.4,0,0,0,2.3-8.9c-.7-2.3-8.6-7.2-19.3-7.2-8.7,0-17.7,2.2-24.7,8.8S312.7,95,312.7,114.1c0,36.2,16.6,43.4,36.1,43.4,6.5,0,12.5-1.6,15.9-4a11.4,11.4,0,0,0,4-7.2,23.3,23.3,0,0,0-1.1-5.1,38.2,38.2,0,0,1-15.6,3.5c-11.7,0-23.1-5.5-23.1-31.5C328.9,91.6,337.1,81.6,348.4,80.7Zm96.5,21.2c0-24.1-5.1-34-22.6-34a32.1,32.1,0,0,0-11.8,2.2,34.1,34.1,0,0,0-11.3,7.4V39.2c0-7.6-.4-10-1.5-12-7.6,0-12.3.8-14.4,4.7.2,4.2.3,9.4.3,17v69c0,14.8-.1,27.1-.3,37.6,9.6,0,11.7,0,14.1-1.8s1.8-5.6,1.8-9.4V89.4c4.1-4.2,10.4-8.1,17.7-8.1s11.2,3,11.7,14.4a40.8,40.8,0,0,1,.4,7.8v43.7a23.5,23.5,0,0,0,1.2,8.3c10.9,0,13-.4,14.8-2.2-.1-6.6-.1-15-.1-24.9Zm55-19.7a32.7,32.7,0,0,0,4.4-.4c2.5-.5,3.6-2.5,4.1-11.6H485.1c0-7.4.2-15,.4-23.3-8.5.6-12.3,3.6-13.6,7.3L471,70.4c-2.7,1.3-8.3,1.8-10.8,4s-1.6.7-1.6,6.3c2.2,1.1,5,1.8,10.8,1.8v44.6c0,14.7,3.1,30.4,19.9,30.4,5.6,0,11.7-1.3,15.2-3.4a7.2,7.2,0,0,0,2.7-3.7c.1-1.6.1-3.4.1-5a26.9,26.9,0,0,0-.3-4c-1.5,1.3-9.8,3.8-12.5,3.6-7.2,0-8.8-7-9.5-17.1,0-6-.2-13-.2-21s.2-16.3.3-24.6Zm99.9-14.3a35.6,35.6,0,0,0-20.9,6.7V41c0-8.2-.4-11.2-1.5-13.8-7.4,0-12.6.8-14.4,4.9.1,4.4.3,9.6.3,17.5v92.5c0,4.2.4,7.4,1.6,10.3,5.1,3.1,13.4,4.9,23.2,4.9,7.2,0,16.2-1.6,23.6-6.7,9.2-6.8,17.5-20.2,17.5-45.1C629.2,78.7,616.4,67.9,599.8,67.9Zm-10.1,77.5a24,24,0,0,1-10.8-2.4V85.8c3.9-3.5,9.5-5.1,14.4-5.1,11.9,0,19,7.1,19,27.3C612.3,137.3,600,145.4,589.7,145.4ZM689,52.7c6.9,0,8.7-4.1,8.9-10.1s-1.1-9-7.8-9-9,3.2-9,9.4S683.2,52.7,689,52.7Zm-28.3,0c6.8,0,8.6-4.1,8.8-10.1s-1.1-9-7.8-9-9,3.2-9,9.4S654.9,52.7,660.7,52.7Zm45.1,52.2c0-13.9.2-25.5.4-35.2-9.8.2-11.8,0-13.9,1.8s-2,4.7-2,8.5v57.4c-3.1,3.8-9.6,6.7-15.9,6.4-8.7,0-13.7-3.5-13.7-19.7l1.8-36.7c0-9.2-.4-13.6-1.5-17.7-9.2,0-13,.5-14.8,2.5.2,6.7.4,13.9.4,24.2l-1.8,30c.3,19.2,4.5,29.8,25.4,30.7a33.1,33.1,0,0,0,11.2-2,37.6,37.6,0,0,0,12.5-7c.7,3.1,2.3,5.4,5.6,5.4l1.2-.2c4-1.8,6.4-3,7.3-4.1a39.6,39.6,0,0,1-2.2-13.6Zm82.5-3c0-24.1-5-34-22.5-34A32.1,32.1,0,0,0,754,70.1a35.5,35.5,0,0,0-11.4,7.4V39.2c0-7.6-.3-10-1.4-12-7.6,0-12.3.8-14.5,4.7.2,4.2.4,9.4.4,17v69c0,14.8-.2,27.1-.4,37.6,9.6,0,11.8,0,14.1-1.8s1.8-5.6,1.8-9.4V89.4c4.2-4.2,10.5-8.1,17.7-8.1s11.2,3,11.8,14.4a50.9,50.9,0,0,1,.3,7.8v43.7a21.6,21.6,0,0,0,1.3,8.3c10.8,0,13-.4,14.8-2.2-.2-6.6-.2-15-.2-24.9Zm81.7-2c0-20.5-4.2-31.8-25.7-31.8a33.1,33.1,0,0,0-11.2,2,34.6,34.6,0,0,0-12.4,7c-.8-3.1-2.4-5.4-5.6-5.4l-1.3.2c-4,1.8-6.3,3-7.2,4.1a39.5,39.5,0,0,1,2.1,13.6v30.7c0,13.9-.1,25.5-.3,35.2,9.7-.2,11.7,0,13.9-1.8s2-4.7,2-8.5V88.8c3.8-4.1,9-7.5,15.5-7.5,10.8,0,14.3,5,14.3,18.9v47.9c0,2.9.3,5.4,1.4,7.4,10.3,0,13-.5,14.8-2.2-.2-7.2-.3-15.9-.3-25.8Zm63,16.9c4.9-.7,10.8-2.7,12.6-4.1a48,48,0,0,0,1.1-10.7c0-3-.2-5.9-.4-8.6-1.6-15.6-9.9-25.5-26.1-25.5-19.9,0-34.7,13-34.7,47.9,0,15,3.2,26.3,9.6,32.8s16,8.7,24.5,8.7a63.5,63.5,0,0,0,13.7-1.8c5.1-1.3,10.3-5.1,10.5-8.7a35.9,35.9,0,0,0-1.1-7.2c-5.8,3.1-12.4,4.3-20,4.3-12.7,0-21.1-6.3-21.3-26.2,2.9.2,5.2.2,8.1.2C918,117.9,927.4,117.6,933,116.8Zm-31.3-10.3c.9-17.5,7.8-25.6,15-26.7a4.4,4.4,0,0,1,1.6-.2c8.2,0,12.1,5.3,13.1,15.4,0,1.2.1,2.5.1,4a14.9,14.9,0,0,1-.9,5.9,10,10,0,0,1-4.1,1.1c-3.5.4-10.9.5-17.9.5Z"/><path class="a" d="M365.9,484.2c5.2-9.6,39.5-73.5,76.3-159.4,62.9-146.7,87.4-249.7,96.7-312.9,10.9,80,12,155.8,3.1,225.7-7.4,58.3-21.8,112.6-42.6,161.4-27.8,65.1-62.3,107.1-77.5,121Z"/><path class="b" d="M538.8,22.5c9.6,75.9,10.2,148,1.7,214.6-7.4,58.2-21.6,112.3-42.3,160.9-18.5,43.3-38.7,74-52.5,92.2a245.2,245.2,0,0,1-24,27.9l-53.8-34.5c7-12.9,40.1-75.3,75.7-158.2,23.4-54.6,43.2-107.1,58.9-156.3,16.9-53,29.1-102.2,36.3-146.6m.1-21.4c-28.3,216.8-175,483.6-175,483.6L422,521.9S593,369.2,538.9,1.1Z"/><path class="a" d="M557.4,528.9c1-19.7,11.7-241.9-14.8-452.9,22.8,102,48.2,236.2,54.3,351.1,3.6,67.4-1.1,99.9-2.3,106.7Z"/><path class="b" d="M547.5,105.5c13,60.3,23.6,117.1,31.5,169.4,8.5,56,14,107,16.4,151.7,3.4,63.7-.6,96.4-2,105.5l-34.5-4.5c.7-13.3,3.5-73,3-154.2-.7-112.4-7.1-202-14.4-267.9M536.6,43.1c33.9,231.5,19.2,487.1,19.2,487.1l40.1,5.3S622.4,410.3,536.6,43.1Z"/><path class="a" d="M419.3,522.1c5.1-8.5,26.9-47.4,50.7-120.2,24.5-74.8,56.2-201.4,69.5-383.2,20.3,108,32.9,202.8,37.4,281.9,3.8,65.5,2.2,120.5-4.9,163.5-6.3,38.1-15.8,59.5-22.6,70.6s-11.5,14-13,15Z"/><path class="b" d="M540.2,30.3c18.9,102.7,30.7,193.2,35.2,269.2,3.8,65.3,2.2,120.2-4.7,163.1-6.1,38.2-15.5,59.6-22.2,70.8-5.7,9.4-10.6,13.4-12.4,14.7l-114.5-27c6.6-11.4,27.3-50,49.9-118.8,15.9-48.6,29.6-102.7,40.8-160.7,12.6-65.7,22-136.7,27.9-211.3M538.9,7.1C514,370.6,417,523.1,417,523.1l119.6,28.2s97.1-47.4,2.3-544.2Z"/><circle cx="538.7" cy="14.8" r="12.5"/><circle class="c" cx="538.7" cy="14.8" r="12.5"/><path class="a" d="M426,565.7h-.7l-74.5-29.4a1.7,1.7,0,0,1-1.2-2.2h0l13.5-56.5a2.1,2.1,0,0,1,1.1-1.3l.8-.2a1.1,1.1,0,0,1,.8.2l67.8,29.3a2.1,2.1,0,0,1,1.2,2.1L428,563.9a1.8,1.8,0,0,1-1,1.5A1.7,1.7,0,0,1,426,565.7Z"/><path class="b" d="M365,477.9l67.8,29.3L426,563.7l-74.5-29.4L365,477.9m0-4a3.3,3.3,0,0,0-1.7.4,3.6,3.6,0,0,0-2.1,2.7l-13.6,56.4a4.2,4.2,0,0,0,2.4,4.7l74.5,29.3a4,4,0,0,0,1.5.3,3.6,3.6,0,0,0,2-.6,4,4,0,0,0,2-2.9l6.7-56.5a3.8,3.8,0,0,0-2.3-4.1l-67.8-29.4a4.5,4.5,0,0,0-1.6-.3Z"/><path class="a" d="M536.6,599.6H536L423.1,563.4a2.1,2.1,0,0,1-1.3-2.3l9-54.2a1.9,1.9,0,0,1,.9-1.4,2,2,0,0,1,1.1-.3h.6L537.2,537a2,2,0,0,1,1.4,1.9v58.7a2.1,2.1,0,0,1-.8,1.6A2.8,2.8,0,0,1,536.6,599.6Z"/><path class="b" d="M432.8,507.2l103.8,31.7v58.7L423.7,561.4l9.1-54.2m0-4a3.9,3.9,0,0,0-2.1.6,4.5,4.5,0,0,0-1.9,2.8l-9,54.2a4.1,4.1,0,0,0,2.7,4.5l112.9,36.1,1.2.2a4.1,4.1,0,0,0,2.4-.8,3.9,3.9,0,0,0,1.6-3.2V538.9a4,4,0,0,0-2.8-3.9L433.9,503.4l-1.1-.2Z"/><path class="a" d="M586.3,606.4H586l-61-9a2.2,2.2,0,0,1-1.3-.8,2.6,2.6,0,0,1-.4-1.5l9.6-58.7a2,2,0,0,1,2-1.7h.2l67.2,6.8a1.8,1.8,0,0,1,1.4.8,2.5,2.5,0,0,1,.3,1.7l-15.8,61A2,2,0,0,1,586.3,606.4Z"/><path class="b" d="M534.9,536.6l67.2,6.8-15.8,61-61-9.1,9.6-58.7m0-4a4,4,0,0,0-4,3.4l-9.5,58.7a4,4,0,0,0,.7,3,4.4,4.4,0,0,0,2.6,1.6l61,9h.6a4,4,0,0,0,3.8-3l15.8-61a4.3,4.3,0,0,0-.5-3.3,3.9,3.9,0,0,0-2.9-1.7l-67.2-6.8Z"/><path class="a" d="M435.8,512.5H435l-81.3-33.9a2.2,2.2,0,0,1-1.2-1.6,2,2,0,0,1,.8-1.9l45.2-33.8a1.7,1.7,0,0,1,1.2-.4h.4a1.9,1.9,0,0,1,1.3,1l36.1,67.8a2,2,0,0,1-.3,2.3A1.9,1.9,0,0,1,435.8,512.5Z"/><path class="b" d="M399.7,442.8l36.1,67.7-81.3-33.9,45.2-33.8m0-4a3.1,3.1,0,0,0-2.4.8l-45.2,33.8a4.4,4.4,0,0,0-1.6,3.7,3.7,3.7,0,0,0,2.5,3.2l81.2,33.9a4.5,4.5,0,0,0,1.6.3,4,4,0,0,0,4-4,4.1,4.1,0,0,0-.5-1.9l-36.1-67.7a3.5,3.5,0,0,0-2.7-2Z"/><path class="a" d="M613.4,549.9h-.3l-80.7-10.1a2,2,0,0,1-1.8-1.5,2.3,2.3,0,0,1,1-2.2l62.7-37.3a1.7,1.7,0,0,1,1-.3h.7a1.8,1.8,0,0,1,1.2,1.2l18,47.4a1.7,1.7,0,0,1-.3,1.9A1.9,1.9,0,0,1,613.4,549.9Z"/><path class="b" d="M595.3,500.5l18.1,47.4-80.8-10,62.7-37.4m0-4a5.4,5.4,0,0,0-2.1.5l-62.6,37.4a4,4,0,0,0-1.9,4.3,3.8,3.8,0,0,0,3.4,3.1l80.8,10.1h.5a4.2,4.2,0,0,0,3.1-1.5,3.9,3.9,0,0,0,.6-3.9L599,499.1a4.1,4.1,0,0,0-2.4-2.4,3,3,0,0,0-1.3-.2Z"/><path class="a" d="M539.9,542.9h-.6L429,512.4a2,2,0,0,1-1.5-1.7,1.9,1.9,0,0,1,1-1.9L504,466.9a1.7,1.7,0,0,1,1-.3h.6a2,2,0,0,1,1.2,1L541.7,540a2,2,0,0,1-.3,2.1A1.9,1.9,0,0,1,539.9,542.9Z"/><path class="b" d="M505,468.6l34.9,72.3L429.5,510.5,505,468.6m0-4a4.1,4.1,0,0,0-1.9.5L427.6,507a4,4,0,0,0-2.1,4,4.2,4.2,0,0,0,2.9,3.4l110.4,30.3,1.1.2a3.6,3.6,0,0,0,3-1.5,4.2,4.2,0,0,0,.6-4.3l-34.9-72.2a3.9,3.9,0,0,0-2.4-2.1l-1.2-.2Z"/><path class="d" d="M344.6,516.6c-57,198.6-77.6,270.1,51.6,307.7,126.2,35.8,146.7-35.7,203.2-234.5Z"/><path class="a" d="M457.5,668c14.1-48.8,30.6-110.2,30.6-110.2l-31.8-9.2s-21.7,73.7-31.5,110.1c-45.9-13.2-29.6-8.2-110.5-32.1-4,15.7-6.8,30.3-6.8,30.3l108.3,32.7c-13.1,47.9-35.8,124.5-37.2,129.2a305.6,305.6,0,0,0,32.7,9.4S425.9,778.6,449,699c81.1,24.1-6.8-2.6,107.2,31.5,3.6-9.6,7.9-21.5,10.4-30C500.3,681.3,502.4,681.3,457.5,668Z"/><path class="e" d="M344.6,516.6l254.8,73.2c-56.5,198.8-77,270.3-203.2,234.5C267,786.7,287.6,715.2,344.6,516.6Z"/><path class="a" d="M380.7,634.9c-11.1,0-21.1-4.3-27.7-11.8s-8.4-15.1-7.9-25c14.8,17,27.9,24,44.7,24,7.2,0,15-1.4,23.9-4.2A40,40,0,0,1,380.7,634.9Zm-3.9-24.2c-.1-3.2-.1-6.7-.2-11.8,0-2.9,0-6.3-.1-10.5v-1.3h-1.3c-9.3-1-12.1-1.2-19.7-1.7h-2l.6-.3c5.2-2.4,12.9-6,17.4-10.3l.8-.8-.5-1c-1.5-2.9-3.3-7.3-5.1-11.7-1.1-2.7-2.2-5.5-3.3-7.9l3.2,1.4,17.4,8.8,1.1.6.8-1c2.4-3.3,9.5-12.9,14.3-19.8-.7,7.8-1.5,18-1.9,24.1l-.2,1.5,6.4.4c8.8.7,11.6.9,17.9,1.7-2.1,1.2-4.2,2.4-6.2,3.7-4.3,2.6-8.4,5.1-12.2,7.1l-1.2.7.6,1.3c1.8,4,4.1,8.2,6.4,12.3s3,5.3,4.3,8l-8.7-4.7-12.9-6.8-1.1-.5-.7.9c-2.5,3.1-5.3,6.8-8.2,10.5Z"/><path d="M398.2,548.6c-.5,6.6-1.1,13.8-1.4,18.6l-.3,3,3,.2,4.9.3,13.4,1.1-2.4,1.5c-4.3,2.6-8.4,5.1-12.1,7.1l-2.4,1.4,1.1,2.5c1.9,4,4.2,8.3,6.5,12.4l2,3.7-4.4-2.4-12.9-6.8-2.2-1.1-1.5,1.9c-2.4,3.1-5.4,6.8-8.2,10.5-1,1.3-2.1,2.6-3.1,4,0-2.2-.1-4.6-.1-7.6s0-6.3-.1-10.5v-2.6l-2.7-.3c-7.6-.8-10.9-1.1-15.9-1.4,4.6-2.3,9.7-5.1,13.1-8.5l1.6-1.5-1-2c-1.5-2.8-3.3-7.2-5-11.5l-1.8-4.4c1.2.5,3.3,1.5,17,8.6l2.2,1.1,1.6-2c2.4-3.3,7.1-9.6,11.1-15.3M346.6,602c13.9,15,27.2,21.6,43.2,21.6a77.7,77.7,0,0,0,19.8-2.9,39.1,39.1,0,0,1-28.9,12.7c-10.6,0-20.3-4.1-26.6-11.3a31.4,31.4,0,0,1-7.5-20.1m55.6-64.6c-3.6,5.9-13.2,18.9-17.5,24.7-25.2-13-11.5-5.7-24.4-12.2,3,5.9,7.1,17.7,10.1,23.6-6.5,6.4-20.8,11.3-22.2,12.9,13.9.9,15.1.9,26.8,2.1.2,14.9.1,20.2.4,26.3,4.9-6.1,11.6-14.8,16.4-20.9,8.4,4.3,17.3,9.2,25.7,13.5-3.6-7.9-9.2-16.5-12.8-24.4,6.7-3.6,14.5-8.6,22.2-13.1-11-1.4-12.2-1.4-27.1-2.5.6-7.8,1.7-22.1,2.4-30Zm-58.2,57c-3.6,27.1,16,42,36.7,42a41.5,41.5,0,0,0,35-18.8,13.4,13.4,0,0,0,.1-2c-9.8,3.4-18.4,5-26,5-18.6,0-31.9-9.4-45.8-26.2Z"/><path d="M1234.2,239c1.3-6.1,5.7-11.9,13.1-17.5a40.2,40.2,0,0,1,25.3-8.5,34.9,34.9,0,0,1,10.8,1.6,26.8,26.8,0,0,1,8.8,4.8,16.9,16.9,0,0,1,5.4,8.8,26.7,26.7,0,0,1,0,12.6,34.2,34.2,0,0,1-7.8,16.1,130.3,130.3,0,0,1-17.3,15.9l-22.3,17.8c-10.9,9-16.9,16.4-18.1,22.1h32.4a11.5,11.5,0,0,0,8.6-3.9c2.4-2.5,5-7.1,8-13.7,2.3-.4,4.1-.1,5.1,1-2,8.5-5.6,18.1-10.5,28.9-5.5-.3-10.3-.4-14.2-.4h-32l-15.2.4a44.4,44.4,0,0,1,7.7-16.9c3.9-5.4,10.9-12.4,21.1-21l16.3-13.3a94.1,94.1,0,0,0,11-10.7,52.2,52.2,0,0,0,7-10.3,47,47,0,0,0,3.8-11.1,28.1,28.1,0,0,0,1-9.1,19.6,19.6,0,0,0-1.4-6.2,8.5,8.5,0,0,0-2.9-4,16.8,16.8,0,0,0-3.8-2.2,13.9,13.9,0,0,0-4-.6,30.5,30.5,0,0,0-11,1.9c-3.2,1.3-5.5,2.7-6.9,4.3a11.4,11.4,0,0,0-2.7,4.9,7.9,7.9,0,0,0,.2,2.5c.2,1.1.4,1.7.4,1.8a20.9,20.9,0,0,1-.1,3.8c-.4,1.9-1.8,3.6-4.1,5.1a11.7,11.7,0,0,1-5.9,2.2,5.7,5.7,0,0,1-4.6-2.1A5.6,5.6,0,0,1,1234.2,239Z"/><path d="M1331.3,326.4c-7.3,0-12.9-2.6-17-7.7s-6.4-11.7-7.4-20.4a83.9,83.9,0,0,1,1.6-27.5,115.1,115.1,0,0,1,6.1-19.9,83.6,83.6,0,0,1,8.7-16.1,67,67,0,0,1,10.4-11.8,42.7,42.7,0,0,1,11.3-7.5,27,27,0,0,1,11.1-2.5c8.9,0,15.5,4,19.8,11.9,5.9,11,6.9,25.7,3,44.2a111.9,111.9,0,0,1-7.1,22.5,74.7,74.7,0,0,1-9.6,16.4,56.4,56.4,0,0,1-10.7,10.6,41.1,41.1,0,0,1-10.7,6.1A30.8,30.8,0,0,1,1331.3,326.4Zm23.4-106.8a13.3,13.3,0,0,0-5.5,1.2,23.8,23.8,0,0,0-6.1,4.7,40.2,40.2,0,0,0-6.5,9.2,93.9,93.9,0,0,0-6.5,15.5,176.9,176.9,0,0,0-6.1,22.6c-.9,3.8-1.6,7.5-2.1,11s-.9,7.6-1.1,12.3a61.4,61.4,0,0,0,.5,11.8,17.1,17.1,0,0,0,3.8,8.4,9.6,9.6,0,0,0,7.7,3.5,11.2,11.2,0,0,0,3.5-.6,29.3,29.3,0,0,0,4.8-2.1,22,22,0,0,0,6-5.1,39,39,0,0,0,5.5-8.8c3.7-7.6,7.4-20,11.1-37.4,2.4-12.4,3.4-22,3-28.9s-1.8-11.6-4.4-14.2A10,10,0,0,0,1354.7,219.6Z"/><path d="M1416.3,326.4c-7.2,0-12.9-2.6-16.9-7.7s-6.4-11.7-7.4-20.4a81.3,81.3,0,0,1,1.6-27.5,115.1,115.1,0,0,1,6.1-19.9,83.6,83.6,0,0,1,8.7-16.1,67,67,0,0,1,10.4-11.8,43.9,43.9,0,0,1,11.2-7.5,27.4,27.4,0,0,1,11.2-2.5c8.9,0,15.4,4,19.7,11.9,6,11,7,25.7,3.1,44.2a118.7,118.7,0,0,1-7.1,22.5,74.7,74.7,0,0,1-9.6,16.4,56.8,56.8,0,0,1-10.8,10.6,39.6,39.6,0,0,1-10.7,6.1A30.3,30.3,0,0,1,1416.3,326.4Zm23.5-106.8a13.3,13.3,0,0,0-5.5,1.2,22.2,22.2,0,0,0-6.1,4.7,43.7,43.7,0,0,0-6.6,9.2,103.5,103.5,0,0,0-6.5,15.5,217.6,217.6,0,0,0-6.1,22.6c-.8,3.8-1.5,7.5-2,11a102.1,102.1,0,0,0-1.1,12.3,48.6,48.6,0,0,0,.5,11.8,17.9,17.9,0,0,0,3.7,8.4,9.9,9.9,0,0,0,7.8,3.5,12.2,12.2,0,0,0,3.5-.6,29.3,29.3,0,0,0,4.8-2.1,20.4,20.4,0,0,0,5.9-5.1,39.2,39.2,0,0,0,5.6-8.8c3.7-7.6,7.4-20,11.1-37.4,2.4-12.4,3.4-22,3-28.9s-1.9-11.6-4.4-14.2A10,10,0,0,0,1439.8,219.6Z"/><path d="M1529.9,277.9a47.7,47.7,0,0,1-18.1,4.1c-6,0-11.1-.8-15.2-2.5s-7.1-3.8-8.9-6.6a24.1,24.1,0,0,1-3.6-9.5,25.8,25.8,0,0,1,.7-11.3,52.4,52.4,0,0,1,4.7-12.8,64,64,0,0,1,8.6-12.6,39.2,39.2,0,0,1,12.7-9.9A36.4,36.4,0,0,1,1527,213a34.8,34.8,0,0,1,7.3.7,33.8,33.8,0,0,1,7.3,2.6,18.9,18.9,0,0,1,6.5,5,33.9,33.9,0,0,1,4.6,8.1,30.5,30.5,0,0,1,1.8,11.8,109.4,109.4,0,0,1-1.9,16.2,79.1,79.1,0,0,1-9.2,22.9,92.5,92.5,0,0,1-17.2,21.4,108,108,0,0,1-20.4,15.2,113.3,113.3,0,0,1-25,9.9q-2-1.2-1.2-4.8c12.2-4.2,22.4-10.2,30.6-18.1A95.6,95.6,0,0,0,1529.9,277.9Zm3-6.7a85.8,85.8,0,0,0,4.5-14.2,88.2,88.2,0,0,0,2.2-15.9,33.9,33.9,0,0,0-.9-10.8,14.6,14.6,0,0,0-3.5-6.5,13.4,13.4,0,0,0-5.2-3.3,21.9,21.9,0,0,0-6.6-.9c-4.8,0-9.3,2.5-13.5,7.4s-7.4,12.2-9.4,21.8a31.8,31.8,0,0,0-.6,4.3,26.4,26.4,0,0,0-.1,4.9,39.6,39.6,0,0,0,.6,5.1,17.2,17.2,0,0,0,1.9,4.7,14.8,14.8,0,0,0,3.1,3.9,13.7,13.7,0,0,0,4.8,2.7,21.8,21.8,0,0,0,6.6,1A32,32,0,0,0,1532.9,271.2Z"/><path d="M1566.5,281.1c-1.8,0-2.4-1-1.9-3.1a7.5,7.5,0,0,1,2.4-3.8q1.9-2.1,3.6-2.1h73.9c1.7,0,2.3,1,1.9,3.1a8.6,8.6,0,0,1-2.4,3.8q-1.9,2.1-3.6,2.1Z"/><path d="M1674.8,239c1.3-6.1,5.6-11.9,13-17.5a40.2,40.2,0,0,1,25.3-8.5,34,34,0,0,1,10.8,1.6,26.8,26.8,0,0,1,8.8,4.8,16.9,16.9,0,0,1,5.4,8.8,26.7,26.7,0,0,1,0,12.6,34.2,34.2,0,0,1-7.8,16.1c-3.8,4.5-9.6,9.8-17.3,15.9l-22.2,17.8c-10.9,9-17,16.4-18.2,22.1H1705a11.4,11.4,0,0,0,8.6-3.9c2.4-2.5,5.1-7.1,8-13.7,2.4-.4,4.1-.1,5.2,1a163,163,0,0,1-10.6,28.9c-5.5-.3-10.3-.4-14.2-.4h-32l-15.2.4a46,46,0,0,1,7.7-16.9c3.9-5.4,10.9-12.4,21.1-21l16.4-13.3a92.7,92.7,0,0,0,10.9-10.7,48.2,48.2,0,0,0,7-10.3,47.2,47.2,0,0,0,3.9-11.1,30.7,30.7,0,0,0,.9-9.1,23.1,23.1,0,0,0-1.3-6.2,9.4,9.4,0,0,0-3-4,14.9,14.9,0,0,0-3.8-2.2,13.4,13.4,0,0,0-4-.6,30.9,30.9,0,0,0-11,1.9,19.1,19.1,0,0,0-6.9,4.3,10.2,10.2,0,0,0-2.6,4.9,5.4,5.4,0,0,0,.1,2.5,12.3,12.3,0,0,1,.4,1.8,14.5,14.5,0,0,1-.1,3.8c-.4,1.9-1.8,3.6-4,5.1s-4.3,2.2-6,2.2a5.7,5.7,0,0,1-4.6-2.1A5.3,5.3,0,0,1,1674.8,239Z"/><path d="M1771.8,326.4c-7.3,0-12.9-2.6-17-7.7s-6.4-11.7-7.4-20.4a83.9,83.9,0,0,1,1.6-27.5,115.1,115.1,0,0,1,6.1-19.9,78.6,78.6,0,0,1,8.8-16.1,66.6,66.6,0,0,1,10.3-11.8,44.3,44.3,0,0,1,11.3-7.5,27,27,0,0,1,11.1-2.5c8.9,0,15.5,4,19.8,11.9,6,11,7,25.7,3,44.2a111.9,111.9,0,0,1-7.1,22.5,78.9,78.9,0,0,1-9.5,16.4,59.8,59.8,0,0,1-10.8,10.6,41.1,41.1,0,0,1-10.7,6.1A30.8,30.8,0,0,1,1771.8,326.4Zm23.4-106.8a13.2,13.2,0,0,0-5.4,1.2,22.4,22.4,0,0,0-6.2,4.7,47.5,47.5,0,0,0-6.5,9.2,93.9,93.9,0,0,0-6.5,15.5,195.1,195.1,0,0,0-6.1,22.6c-.9,3.8-1.5,7.5-2.1,11s-.9,7.6-1.1,12.3a61.4,61.4,0,0,0,.5,11.8,18,18,0,0,0,3.8,8.4,9.6,9.6,0,0,0,7.7,3.5,12.3,12.3,0,0,0,3.6-.6,33.2,33.2,0,0,0,4.7-2.1,22,22,0,0,0,6-5.1,43,43,0,0,0,5.6-8.8c3.7-7.6,7.3-20,11-37.4,2.4-12.4,3.4-22,3-28.9s-1.8-11.6-4.4-14.2A9.9,9.9,0,0,0,1795.2,219.6Z"/><path d="M1872.9,302.3a53.2,53.2,0,0,0-1.1,7.2,15.7,15.7,0,0,0,.4,4.6,3.9,3.9,0,0,0,2.4,2.6,20,20,0,0,0,4.2,1.1l6.5.6a4.7,4.7,0,0,1,.2,3.3,5.6,5.6,0,0,1-1.5,3.3l-22.2-.4c-5,0-13.5.1-25.5.4a4.7,4.7,0,0,1-.2-3.3,5.6,5.6,0,0,1,1.5-3.3c3.7-.2,6.5-.5,8.4-.8a18.5,18.5,0,0,0,5.7-2,11.1,11.1,0,0,0,4.4-4.7,32.4,32.4,0,0,0,2.7-8.6l12.7-59.7c1.5-7.2,1-10.8-1.4-10.7s-9,1.5-16.9,4.6c-1.3-1-1.9-2.7-1.7-4.9,18.8-7.9,32-14,39.8-18.2q1,0,.9.9c-1,2.8-2.9,10.9-5.8,24.4Z"/><path d="M1970.4,277.9a47.7,47.7,0,0,1-18.1,4.1c-6,0-11.1-.8-15.2-2.5s-7.1-3.8-8.9-6.6a24.1,24.1,0,0,1-3.6-9.5,25.8,25.8,0,0,1,.7-11.3,49,49,0,0,1,4.8-12.8,63.4,63.4,0,0,1,8.5-12.6,40.3,40.3,0,0,1,12.7-9.9,36.4,36.4,0,0,1,16.2-3.8,30.7,30.7,0,0,1,14.6,3.3,18,18,0,0,1,6.5,5,33.9,33.9,0,0,1,4.6,8.1,30.5,30.5,0,0,1,1.8,11.8,97.4,97.4,0,0,1-1.9,16.2,79.1,79.1,0,0,1-9.2,22.9,92.5,92.5,0,0,1-17.2,21.4,108,108,0,0,1-20.4,15.2,113.3,113.3,0,0,1-25,9.9c-1.3-.8-1.6-2.4-1.2-4.8,12.2-4.2,22.4-10.2,30.6-18.1A93.6,93.6,0,0,0,1970.4,277.9Zm3-6.7a85.8,85.8,0,0,0,4.5-14.2,80,80,0,0,0,2.2-15.9,33.9,33.9,0,0,0-.9-10.8,14.6,14.6,0,0,0-3.5-6.5,12.8,12.8,0,0,0-5.2-3.3,21.9,21.9,0,0,0-6.6-.9c-4.8,0-9.3,2.5-13.5,7.4s-7.3,12.2-9.4,21.8a31.8,31.8,0,0,0-.6,4.3,26.4,26.4,0,0,0-.1,4.9,27.3,27.3,0,0,0,.7,5.1,14.3,14.3,0,0,0,1.8,4.7,17.2,17.2,0,0,0,3.1,3.9,13.7,13.7,0,0,0,4.8,2.7,22.8,22.8,0,0,0,6.6,1A32,32,0,0,0,1973.4,271.2Z"/><path d="M1270.8,559.4a95.8,95.8,0,0,0-2,13.9,28.7,28.7,0,0,0,.6,8.7,7.1,7.1,0,0,0,4.7,5,31.7,31.7,0,0,0,8,2.2c2.8.3,7,.7,12.4,1,.8,1.2.9,3.3.4,6.3s-1.5,5.2-2.8,6.4l-42.5-.8c-9.6,0-25.8.3-48.7.8-.8-1.2-.9-3.3-.4-6.4s1.5-5.1,2.8-6.3a141,141,0,0,0,16.1-1.4,35,35,0,0,0,10.9-3.9,20.9,20.9,0,0,0,8.4-9,64.7,64.7,0,0,0,5.2-16.4l24.3-114.2q4.2-20.6-2.7-20.4c-6.4,0-17.2,2.9-32.3,8.7-2.5-1.9-3.6-5.1-3.3-9.4q53.8-22.5,76.1-34.8c1.3,0,1.9.6,1.7,1.7-1.9,5.4-5.5,21-11,46.8Z"/><path d="M1402.9,605.6c-13.9,0-24.7-4.9-32.5-14.7s-12.2-22.4-14.2-39-.9-34,3.1-52.6a207.6,207.6,0,0,1,11.7-38,163.7,163.7,0,0,1,16.7-31,128.5,128.5,0,0,1,19.8-22.5,82.9,82.9,0,0,1,21.5-14.3,53,53,0,0,1,21.4-4.8q25.5,0,37.8,22.8c11.3,20.9,13.3,49.1,5.8,84.6a215.8,215.8,0,0,1-13.6,42.9c-5.8,12.8-11.9,23.3-18.3,31.4a109.5,109.5,0,0,1-20.6,20.3,79,79,0,0,1-20.5,11.6A55.6,55.6,0,0,1,1402.9,605.6Zm44.8-204.2a24.3,24.3,0,0,0-10.5,2.3q-5.1,2.3-11.7,9a78,78,0,0,0-12.5,17.5c-4,7.2-8.2,17-12.4,29.6a377.2,377.2,0,0,0-11.7,43.2c-1.6,7.4-2.9,14.5-4,21.2a230.7,230.7,0,0,0-2.1,23.4,106.6,106.6,0,0,0,1,22.7,33.1,33.1,0,0,0,7.2,16,18.4,18.4,0,0,0,14.8,6.7,24.6,24.6,0,0,0,6.7-1.1,62.5,62.5,0,0,0,9.2-4,42.1,42.1,0,0,0,11.3-9.8,74.3,74.3,0,0,0,10.7-16.9c7.1-14.4,14.1-38.3,21.2-71.6q6.9-35.6,5.7-55.2c-.7-13-3.5-22.1-8.4-27.1S1453.8,401.4,1447.7,401.4Z"/><path d="M1692.1,419.2l-31.3,146.9a163.5,163.5,0,0,1-9.8,31.6,98.8,98.8,0,0,1-14.4,23.4,146.3,146.3,0,0,1-14,14.6c-3.9,3.3-8.8,7.2-14.8,11.6-8.1,5.8-15.4,9.8-21.9,11.9a72.6,72.6,0,0,1-22.4,3.1,29.1,29.1,0,0,1-9.8-1.9,23.5,23.5,0,0,1-9.5-6.5,11.4,11.4,0,0,1-2.9-10.4c.8-3.5,3.4-6.9,7.9-10.1s8-4.9,10.7-4.9a14.1,14.1,0,0,1,6.4,1.4,10.2,10.2,0,0,1,3.4,2.6,30,30,0,0,1,1.9,4.2,20.8,20.8,0,0,0,1.7,3.6c2.1,4.2,5.7,6.3,10.7,6.3a22,22,0,0,0,10.3-2.7c3.4-1.8,7.2-5.1,11.5-9.8s8.5-12.3,12.6-22.6,7.7-22.9,10.9-37.7l32.8-154.7a104.8,104.8,0,0,0,1.9-10.5,54.4,54.4,0,0,0,.4-7.7,8.1,8.1,0,0,0-1.7-5.4,26.9,26.9,0,0,0-3.3-3.4,14.1,14.1,0,0,0-5.8-2.1,80.5,80.5,0,0,0-8-1.1c-2.5-.2-6.1-.4-10.7-.5-.8-1.1-.8-3.2-.2-6.3s1.5-5.2,2.8-6.4c23.3.5,39.5.8,48.6.8l42.1-.8c.8,1.2.9,3.2.3,6.3s-1.4,5.2-2.7,6.4a128.3,128.3,0,0,0-13.5,1.2,20.8,20.8,0,0,0-8.8,3.9,20.2,20.2,0,0,0-6.7,9A128,128,0,0,0,1692.1,419.2Z"/><path d="M1792.8,585.5h-.7l-8.2,5.4c-9.1,6.1-16.3,10-21.6,11.9s-11.8,2.8-19.8,2.8c-13.2,0-23.2-3-30-9.1s-8.8-15.6-6-28.7c2.5-11.6,10-21.9,22.4-30.8s27.8-15.6,46-19.9l31.8-7.4c1.4-.4,2.4-1.8,2.8-4.1q9.8-44.4-18.5-44.4a60.9,60.9,0,0,0-21,3.5c-6.3,2.3-10,5.9-11,10.8a25.5,25.5,0,0,0-.8,6.7c.4,1.3.3,3.4-.4,6.1s-2.5,5.1-5.8,7.6a19.5,19.5,0,0,1-12,3.7q-12.4,0-9.9-12.3c2.1-9.4,10.1-18.2,23.9-26.4s28-12.4,42.3-12.4a75,75,0,0,1,15,1.4,45,45,0,0,1,13.2,5.1,24.2,24.2,0,0,1,9.9,10.4q3.1,6.6,4.5,17.1t-2.4,25.2l-11.1,52.1c-2.4,8.1-3.2,15.1-2.5,20.9s4.1,8.8,10.2,8.8a13.5,13.5,0,0,0,8-2.7,27.1,27.1,0,0,1,4.1-2.7q1.2,0,2.4,2.1a5.4,5.4,0,0,1,.9,3.7c-.3.8-1.8,2.4-4.7,4.9a55.1,55.1,0,0,1-12.5,7.2,39.1,39.1,0,0,1-16,3.6Q1794.3,605.8,1792.8,585.5Zm13.7-65.3-29.2,7.2q-35.1,8.7-41.6,38.9a21.8,21.8,0,0,0,3,17.3c3.3,5.2,9.1,7.8,17.1,7.8s19.4-5.1,34-15.2c3.8-2.5,6-5.5,6.8-9Z"/><path d="M1926.1,501.9l-12.3,57.5c-1.3,5.9-2.1,10.5-2.5,13.9a42.7,42.7,0,0,0-.3,8.5,5.8,5.8,0,0,0,2.8,5,18.3,18.3,0,0,0,5.4,2.3,68.2,68.2,0,0,0,8.8,1.1q1.2,1.8.3,6.3c-.6,3.1-1.5,5.2-2.7,6.4l-34.5-.8c-6.4,0-19.2.3-38.6.8-.8-1.2-.9-3.3-.2-6.4s1.5-5.1,2.8-6.3a95.8,95.8,0,0,0,12.9-1.5,17,17,0,0,0,7.9-4,19.3,19.3,0,0,0,5.9-8.8,152.2,152.2,0,0,0,4.4-16.4l32.6-153a105.3,105.3,0,0,0,2.3-13.5,75.8,75.8,0,0,0,.1-8.1,5,5,0,0,0-2.7-4.5,14.4,14.4,0,0,0-4.9-1.7,68.4,68.4,0,0,0-7.9-.7h-3.3a5.9,5.9,0,0,1-1-3,18.2,18.2,0,0,1,.2-4,12.5,12.5,0,0,1,1-3.4c4.7-.4,10.4-1.1,17.3-2.2s13.4-2.3,19.7-3.6a115.8,115.8,0,0,0,13.9-3.8,4.7,4.7,0,0,1,3.3.9q1,.8.6,2.7c-2.9,9.3-6,21.6-9.2,36.7L1931.4,477c-.4,1.6-.3,2.3.3,2.2a14.7,14.7,0,0,0,3.1-2.4c20.9-18.8,42.7-28.3,65.4-28.3q20,0,26.4,12c4.5,8.2,4.4,23.8-.5,46.8L2015,559.4a91.9,91.9,0,0,0-2.3,13.7,41.7,41.7,0,0,0-.1,8.6,6,6,0,0,0,3.2,5,22.9,22.9,0,0,0,6,2.2,98.6,98.6,0,0,0,9.9,1.3c.7,1.2.7,3.3.1,6.3s-1.5,5.2-2.7,6.4c-19.9-.5-32.2-.8-36.8-.8l-35.9.8c-.7-1.2-.7-3.3-.1-6.4s1.5-5.1,2.7-6.3c4.3-.4,7.5-.9,9.6-1.3a29.3,29.3,0,0,0,6.5-2.2,11,11,0,0,0,5.2-5,73.6,73.6,0,0,0,3.5-8.5,125.6,125.6,0,0,0,3.5-13.7l11.4-53.2q3.9-18.6,1.5-27a16.5,16.5,0,0,0-6.1-9.3,15.7,15.7,0,0,0-9.8-3.3c-7,0-15,1.8-23.9,5.5a99.8,99.8,0,0,0-25.1,15.1C1930.3,491.6,1927.2,496.5,1926.1,501.9Z"/><path d="M2122.8,476.8c-.3,1.6-.2,2.5.5,2.6a7.2,7.2,0,0,0,2.2-1.9,107.4,107.4,0,0,1,21.7-20.4c8-5.7,15.8-8.6,23.3-8.6s11.5,1.8,14.4,5.4,3.9,7.4,3,11.4a21.7,21.7,0,0,1-7.6,12.1c-4.2,3.7-8.3,5.5-12.6,5.5a9,9,0,0,1-4.6-1.2,9.7,9.7,0,0,1-3-2.5,24.9,24.9,0,0,1-2.5-3.5l-2-3.1c-1.2-1.6-3.5-2.3-6.8-2.3s-9.4,5.6-19.7,17c-7.4,8.3-11.9,16.1-13.5,23.3l-9.8,48.6c-1.1,5.2-1.9,9.3-2.6,12.5a20.4,20.4,0,0,0-.2,8.1,12.5,12.5,0,0,0,1.8,5.1c.7,1.1,2.3,2.1,4.8,2.9a37.5,37.5,0,0,0,7.1,1.5l10.5.9c.8,1.2,1,3.3.4,6.3s-1.5,5.2-2.7,6.4c-19.8-.5-33.6-.8-41.5-.8s-20.2.3-40,.8c-.8-1.2-.9-3.3-.3-6.4s1.6-5.1,2.9-6.3a105.6,105.6,0,0,0,13.6-1.5,18.1,18.1,0,0,0,8.4-4,19.8,19.8,0,0,0,6.2-8.8,152.2,152.2,0,0,0,4.4-16.4l14.5-68.2c2-9.8,2-16-.1-18.6s-8-4.3-17.6-5.2a17.1,17.1,0,0,1,1.3-9.9c18.4-2.4,33.5-5.7,45.4-10.1a3.3,3.3,0,0,1,3.6,2.8C2126.6,454.4,2125.6,463.2,2122.8,476.8Z"/><path d="M2303.9,569.7c3.7.4,5.8,2.2,6.1,5.5q-29.9,30.4-66,30.4-34.5,0-48.7-22.4-12.5-18.9-5.4-51.8a107.8,107.8,0,0,1,14.1-35.1,101.3,101.3,0,0,1,22.5-26,112.6,112.6,0,0,1,25.8-15.5c8.9-3.7,17.2-5.6,25.1-5.6q59.1,0,46.1,60.9c-.8,4-3.4,6-7.9,6l-92.9-.7q-6.3,29.4,1,48,5,12.6,13.8,18.9a32.4,32.4,0,0,0,19,6.2q14.7,0,24.9-4.2C2288.2,581.5,2295.7,576.7,2303.9,569.7Zm-77.6-67,63.5-1c3.6-.1,5.7-1.6,6.4-4.6,2.8-12.7,2-21.8-2.5-27.2s-10.8-8-18.9-8a37,37,0,0,0-16.3,3.4,44.6,44.6,0,0,0-11.1,6.6,60.2,60.2,0,0,0-11.1,12A85.3,85.3,0,0,0,2226.3,502.7Z"/></svg>