<?xml version="1.0" encoding="utf-8"?>
<!-- Generator: Adobe Illustrator 23.0.1, SVG Export Plug-In . SVG Version: 6.00 Build 0)  -->
<svg version="1.1" id="Ebene_1" xmlns="http://www.w3.org/2000/svg" xmlns:xlink="http://www.w3.org/1999/xlink" x="0px" y="0px"
	 viewBox="0 0 1263 81" style="enable-background:new 0 0 1263 81;" xml:space="preserve">
<g>
	<path d="M67.8,37.5c0,3.1-0.6,6.9-1.9,11.5c-1.3,4.8-2.8,8.7-4.5,11.8c-0.9,1.5-2,3.1-3.4,4.8c-1.4,1.7-3,3.3-5,5
		c-4.9,4.3-9.1,6.4-12.6,6.4h-2.8c-1.6,0-3.1-0.4-4.7-1.1c-1.6-0.7-3.2-1.9-4.7-3.5l-8-8.5c-1.6-1.6-3.1-2.8-4.6-3.6
		c-1.5-0.7-3-1.1-4.3-1.1c-3.4,0-5.5,1.9-6.3,5.6C4,68.6,3,70.4,1.6,70.4c-0.5,0-1-0.3-1.2-0.8c-0.3-0.6-0.4-1.2-0.4-2
		c0-1.2,0.3-2.5,1-3.8c0.6-1.3,1.6-2.6,3-3.8l7.2-6.6c1.4-1.3,2.4-2.7,3.1-4.2c0.6-1.5,0.9-2.9,0.9-4.4v-7.3
		c0-6.7-1.6-10.2-4.7-10.7C9,26.6,8.2,26,8.2,25.2c0-0.4,0.1-0.7,0.3-0.9c0.2-0.3,0.6-0.5,1.3-0.5h2.8c1.1,0,2.2-0.2,3.4-0.5
		c1.2-0.3,2.6-0.9,4.1-1.7l8.6-4.7c0.6,0,0.9,0.5,0.9,1.4c0,0.6-0.5,1.4-1.4,2.4c-0.9,1.1-1.4,2.1-1.4,3.1v19.9c0,0.9,0.3,1.8,1,2.7
		c0.6,0.8,1,1.4,1,1.7c0,0.6-1,1.2-3,1.8c-2.1,0.5-3.7,1.7-4.9,3.6c0.2,0.1,0.4,0.1,0.6,0.2c0.2,0.1,0.5,0.1,0.9,0.1
		c0.4,0,0.9,0,1.5,0s1.4,0,2.4,0c1.1,0,2.2,0.3,3.3,0.8c1.1,0.5,2.3,1.4,3.6,2.6c1.1,1.1,2.2,2.1,3.2,3.2c1.1,1.1,2.1,2.1,3.2,3.1
		c2.5,2.3,4.8,3.5,6.9,3.5c3.7,0,7.3-2.8,10.8-8.4c3.3-5.3,4.9-10.2,4.9-14.9v-3.2c0-6.8-1.9-12.7-5.8-17.7
		c-3.9-5.1-8.2-7.7-12.8-7.7H31.9l-3.8,0.7c-2.7,0.5-4.4,0.7-5.1,0.7h-8.5c-2.5,0-4.7-0.7-6.6-2.1c-2.1-1.6-3.2-3.7-3.2-6.3
		c0-2.4,0.7-4.7,2-6.9C8.1-0.9,9.6-2,11.1-2c0.4,0,0.8,0.5,1,1.4c0.6,2.2,2.1,3.3,4.6,3.3c3.1-0.5,6-0.9,8.9-1.3
		c2.8-0.4,5.2-0.6,6.9-0.6h11.7c6.9,0,12.7,3.3,17.4,9.9c4.2,5.8,6.3,12,6.3,18.7V37.5z"/>
	<path d="M108.5,35.4c0,0.6-1.7,2.3-5.2,5c-1.4,1.1-2.9,2.2-4.6,3.4c-1.7,1.2-3.5,2.5-5.5,3.8L86.4,52c-2.1,1.4-3.6,2.4-4.7,3.1
		c-1.1,0.7-1.6,1.2-1.6,1.5c0.6,0.9,1.2,1.7,1.8,2.4c0.5,0.7,1,1.3,1.5,1.7c3,2.8,6.3,4.2,9.8,4.2c2.9,0,5.4-0.9,7.6-2.8l5.3-6.2
		c0.6,0,1,0.2,1.1,0.7c0.2,0.4,0.2,1.1,0.2,1.9c0,4-1.9,8.1-5.7,12.3C98,74.9,94.5,77,91.3,77h-4.6c-3,0-6.4-2.4-10.2-7.3
		c-3.8-4.8-5.6-9.5-5.6-13.8V45.6c0-4.1,1.9-8.6,5.6-13.4c4-5.2,7.9-7.7,11.9-7.7h3.3c1.5,0,4.7,1.7,9.5,5
		C106,32.8,108.5,34.8,108.5,35.4z M95.9,40.3c-2.1-1.2-4.6-3.9-7.6-8.1c-1-1.4-2.2-2.1-3.6-2.1c-1.7,0-3.3,0.9-4.7,2.8
		c-0.5,1.1-1.1,2.2-1.6,3.3s-1.1,2.2-1.6,3.3v7.5c0.4,0.2,0.6,0.8,0.7,1.8c0,0.9,0.6,1.9,1.6,3.1c0.3-0.5,2.2-1.9,5.6-4.2
		c1.9-1.2,3.7-2.4,5.6-3.7C92.2,42.9,94.1,41.6,95.9,40.3z"/>
	<path d="M138.4,43.4h-1c-0.1-0.5-0.1-1.2-0.1-1.9c0-0.4,0-1,0.1-1.8c0-0.8,0.1-1.3,0.1-1.6c0-1.1-0.2-1.8-0.5-2.4
		c-0.5-0.7-1.4-1-2.7-1c-0.8,0-1.7,0.7-2.9,2.1c-1.1,1.4-1.7,2.6-1.7,3.6v29.1c0,1.2,0.5,2.2,1.4,3.2c1,1.1,1.5,2,1.5,2.8
		c0,0.6-0.1,1-0.4,1.2c-0.3,0.2-0.7,0.3-1.2,0.3c-0.7-0.5-1.5-1-2.5-1.5c-1-0.5-2.1-0.7-3.4-0.7c-1.6,0-2.9,0.2-3.9,0.7
		c-1.1,0.5-2.2,1-3.3,1.5h-0.8l-0.8-1.5c0.4-0.5,0.7-1,1-1.3c0.3-0.4,0.5-0.7,0.7-0.9c1.1-1.7,1.6-3.1,1.6-4.1V40.7
		c0-2.3-0.8-4-2.3-5.1l-4.9-2.1c0-0.6,1.5-2.2,4.4-4.9c2.9-2.7,4.6-4.1,5.1-4.1c0.7,0.4,1.2,0.7,1.5,0.9c2.3,1.8,4.2,4.4,5.7,7.7
		c0.6-0.2,1.8-1.6,3.6-4.4c1.7-2.6,3.8-3.9,6.3-3.9c0.6,0,2.2,0.3,4.5,1c2.5,0.7,3.9,1.4,4.3,2L138.4,43.4z"/>
	<path d="M253.6,45.2l-0.6,3.2c-0.4,1.4-0.9,2.7-1.5,4.1c-0.6,1.3-1.4,2.7-2.3,4.1c-2.4,3.8-5.7,7.5-9.7,10.8
		c-1.3,1.1-2.6,2.1-4,3.1c-1.3,0.9-2.6,1.8-3.9,2.5c-4.4,2.6-7.9,4-10.5,4h-6.1l-2.6-0.5c-2.2-0.4-4.2-1.2-6.1-2.4
		c-1.9-1.2-3.8-2.6-5.7-4.2c-5.1-4.4-8.9-9.2-11.3-14.2c-2.5-5-3.7-10.3-3.7-15.7c0-2.8,0.9-6.9,2.7-12.1c1.8-5.2,3.8-9.1,6-11.9
		c3.2-4.1,7.2-7.7,12-10.8c1.7-1.2,3.6-2.2,5.5-3.1c1.9-0.9,3.9-1.8,5.9-2.5c3.1-1.1,5.2-1.7,6.4-1.7h5.2c0.9,0,2,0.2,3.3,0.6
		c1.3,0.4,2.7,1,4.4,1.8c0.8,0.4,1.6,0.8,2.4,1.2c0.8,0.4,1.6,0.8,2.4,1.2c0.6,0,1.1-0.4,1.4-1.3c0.3-0.9,0.7-1.3,1.2-1.3
		c0.4,0,0.8,0.3,1.4,0.8c0.5,0.5,0.8,1,0.8,1.4c-1.1,1.8-2.1,3.4-3,4.7c-0.8,1.3-1.5,2.5-2.1,3.4c-3.4,5.5-5.2,8.5-5.2,8.9
		c0,0.6,0.6,1,1.9,1.3c4,1.1,7.1,2.7,9.3,4.9c1.3,1.3,2.6,3.2,4.1,5.7c1.4,2.5,2.1,4.4,2.1,5.8V45.2z M243,46.7
		c0-2.8-1.4-6.3-4.1-10.4c-2.6-3.7-4.6-5.9-6.2-6.6c-0.3,0.6-0.6,1.1-0.8,1.5c-0.2,0.4-0.4,0.9-0.4,1.5h-2.3l-0.8-0.9
		c-0.1-0.2-0.1-0.5-0.1-0.9c0-0.8,0.1-1.5,0.2-1.9c0.1-0.4,0.4-0.8,0.8-1.1v-1.2c-0.8-0.2-1.5-0.4-2.2-0.7c-0.7-0.3-1.1-0.4-1.3-0.4
		h-3.2l-2.1,1.9c-1,0.9-1.4,2.1-1.4,3.7c0,1.4,0.6,2.7,1.7,3.8l0.8,0.6c0.2,0,0.6-0.2,1.2-0.8c0.6-0.5,1.1-0.8,1.7-0.8
		c0.9,0,1.3,0.7,1.3,2.2c0,0.9-0.5,1.8-1.4,2.7c-0.9,0.8-1.7,1.6-2.4,2.4c-0.8,0.8-1.4,1.7-2,2.6l-3.8,6.6c-0.3,0.6-0.7,1-1,1.2
		c-0.3,0.2-0.7,0.3-1,0.3c-0.6,0-1.1-0.1-1.4-0.2c-0.2-0.2-0.3-0.4-0.3-0.6c0-0.2,0.1-0.4,0.3-0.8l0.1-0.2c-0.3-0.2-0.5-0.4-0.5-0.6
		c0-0.4,0.2-0.9,0.5-1.6c-0.5-0.4-1.4-1.6-2.4-3.6c-1.1-2.2-1.6-3.3-1.8-3.4v-5.9c1.2-2.9,2.4-5.4,3.7-7.6c1.3-2.2,3.1-3.8,5.3-4.9
		c3.1-1.5,6-2.5,8.7-2.9c3.6-0.6,5.8-1.3,6.7-2.2v-1.5c-1.5-0.7-2.8-1.4-4-1.9c-1.2-0.6-2.2-1-3-1.4c-5-2.2-8.6-3.3-10.7-3.3h-3.2
		c-3.7,0-7.6,2.5-11.8,7.6c-4.1,5-6.2,9.8-6.2,14.5c0,7.6,3.9,15.4,11.8,23.1c7.5,7.5,14.4,11.2,20.7,11.2h3.8
		c2.5,0,5.2-1.7,8.1-5.1c2.9-3.4,4.4-6.5,4.4-9.3V46.7z"/>
	<path d="M275.8-0.5c-0.4,0.5-0.8,1-1.1,1.4c-0.3,0.4-0.5,0.8-0.7,1.1c-1.2,2-1.9,3.6-1.9,4.8v58c0,4.1,0.6,6.9,1.7,8.4
		c0.6,0.7,0.9,1.5,0.9,2.4c0,0.6-0.1,1-0.4,1.2c-0.3,0.2-0.7,0.3-1.2,0.3c-0.1,0-1-0.4-2.7-1.1c-1.6-0.8-2.7-1.2-3.3-1.2
		c-1,0-2.2,0.3-3.4,0.8c-1.3,0.5-2.6,1-3.8,1.5h-1.3v-2.7c0.5-0.6,1.1-1.9,1.7-4c0.6-1.9,0.9-3.2,0.9-4V13.6c0-1.4-0.7-2.7-2-4
		c-0.6-0.6-1-1.2-1-1.7c1.5-1.1,2.8-2.1,4-2.9c1.2-0.8,2.1-1.5,2.9-2.1c4.8-3.3,7.8-5,9.1-5c0.5,0,0.8,0.2,1.1,0.5
		C275.4-1.4,275.6-1.1,275.8-0.5z"/>
	<path d="M318.8,50.6c0,7-2.7,13.4-8.1,19c-4.7,4.9-8.9,7.3-12.6,7.3c-6,0-11.1-3-15.3-8.9c-3.4-4.8-5.2-8.9-5.2-12.4v-5.1
		c0-4.9,2.1-10.4,6.2-16.5c4.4-6.4,8.6-9.6,12.7-9.6h3.8c3.8,0,7.7,2.4,11.7,7.2C316.5,37.1,318.8,43.4,318.8,50.6z M312.4,59.7
		v-5.1l-2.7-5.5c-1.1-2.1-2.2-3.9-3.3-5.5c-1.2-1.6-2.3-3.1-3.5-4.3c-3.4-3.5-7.1-5.2-10.9-5.2c-2.1,0-3.9,1-5.6,3.1
		c-1.6,2-2.4,4.4-2.4,7.2c0,4.6,2.5,9.6,7.4,14.9c4.9,5.3,9.3,7.9,13.3,7.9c1.6,0,3.1-0.7,4.4-2.1L312.4,59.7z M303,8
		c0,1.6-1.8,3.9-5.5,7l-6.9,5.7h-1.9V19L293,7.4c0.6-1.6,1.4-2.8,2.3-3.6c0.9-0.8,1.8-1.2,2.8-1.2c1.3,0,2.5,0.6,3.4,1.9
		C302.5,5.7,303,6.9,303,8z M315.2,8.5c0,1.7-1.8,4-5.5,7l-6.9,5.7h-1.9v-1.6L305.2,8c0.6-1.7,1.4-2.9,2.3-3.7
		c0.9-0.8,1.8-1.1,2.8-1.1c1.3,0,2.5,0.6,3.4,1.9C314.7,6.3,315.2,7.5,315.2,8.5z"/>
	<path d="M359.2,62.5c0,2.6-1.6,5.6-4.9,8.9c-3.8,3.7-7.8,5.6-12,5.6c-6,0-10.9-2.9-14.8-8.7c-3.1-4.6-4.6-8.9-4.6-12.9v-8.6
		c0-4.3,1.9-9,5.7-14.1c4.2-5.5,8.6-8.3,13.4-8.3c0.7,0,1.5,0.1,2.5,0.4c1,0.2,2.2,0.7,3.5,1.3l3.6,1.8h2.6c0.4,0,0.8-0.2,1.2-0.5
		c1-0.7,1.7-1.1,2.1-1.1c1.1,0,1.6,0.5,1.6,1.6c0,1.1-1,2.9-3.1,5.3c-2.4,2.8-4.7,4.2-6.7,4.2c-2.1,0-5.1-1-9.1-3
		c-1.9-1-3.5-1.5-4.8-1.5c-2.2,0-4,1.2-5.6,3.5c-1.2,1.8-1.8,3.2-1.8,4.3v4.1c0,3.2,1.9,7.1,5.6,11.5c3.9,4.7,7.4,7.1,10.7,7.1h4.2
		c0.7,0,1.5-0.2,2.2-0.6c0.7-0.4,1.5-0.8,2.2-1.4c0.7-0.6,1.5-1.2,2.2-1.9c0.7-0.7,1.4-1.4,2.2-2.1h2V62.5z"/>
	<path d="M406.1,70.5c0,0.8-1.5,2.2-4.4,4.1c-0.5,0.3-1.1,0.7-1.9,1.2c-0.7,0.5-1.6,1-2.6,1.6c-0.9,0-1.8-0.5-2.8-1.5
		c-0.9-1-1.8-2.6-2.4-4.7l-3.8-11.5c-1.4-4.2-2.9-6.2-4.5-6.2c-0.6,0-1.4,0.3-2.3,0.8c-1.4,0.8-3,2.1-4.7,3.8v11.4
		c0,0.6,0.4,1.6,1.2,2.9c0.8,1.4,1.2,2.3,1.2,2.8v1.5h-3c-0.8-0.4-1.7-0.8-2.7-1.3c-1-0.4-1.7-0.6-2.2-0.6c-0.3,0-0.9,0.2-1.7,0.6
		l-3.2,1.7h-1.4v-2.6c0.4-1,0.8-2,1.1-3c0.3-1,0.6-1.9,0.8-2.6c0.2-0.8,0.4-1.4,0.5-1.9c0.1-0.5,0.2-0.8,0.3-0.8V15.1
		c0-0.5-0.8-1.7-2.3-3.5c-1.5-1.8-2.3-2.8-2.3-3c0-0.7,0.5-1.3,1.5-1.7c3.2-1.2,5.1-2.2,5.7-2.9c1.1-1.2,2.5-2.3,4.1-3.6
		c2-1.4,3.3-2.1,4.1-2.1c0.4,0,0.8,0.2,1.3,0.6c0.5,0.4,0.7,0.8,0.7,1.3c-1,0.6-1.8,1.6-2.5,3.1c-0.7,1.5-1.1,3.5-1.1,6v27.7h1.6
		c1-1.1,3.4-2.9,7.3-5.7c4.9-3.5,8.1-5.3,9.6-5.3c1.3,0,2,0.6,2,1.9c0,0.6-0.2,1-0.6,1.1c-0.3,0.1-0.5,0.6-0.5,1.6
		c0.7,1.2,1.3,2.4,1.9,3.6c0.5,1.2,0.8,2.5,0.8,4c0,2.1-1.1,3.8-3.2,5.3c-2.1,1.5-3.2,2.5-3.2,3.1c0.4,0.3,0.9,0.8,1.4,1.3
		c0.5,0.6,1.1,1.4,1.7,2.4c0.6,1,1.1,2.3,1.7,3.8s1.1,3.3,1.5,5.3c0.4,1.7,0.7,3.1,1.1,4.3c0.4,1.2,0.7,2.1,1.1,2.6
		c1.1,1.7,2.7,2.5,5,2.5V70.5z M389.6,41.3c0-0.4-0.3-0.9-0.8-1.7s-0.8-2.2-0.8-4.3h-1l-9.9,7.7v8.7c0.9-0.3,1.9-0.8,3.1-1.6
		c1.2-0.8,2.6-1.8,4.2-3C387.9,44.4,389.6,42.5,389.6,41.3z"/>
	<path d="M460.4,70.8c0,0.4-1.4,1.6-4.3,3.8c-0.9,0.7-2.4,1.8-4.3,3.1c-0.5,0-1.9-1.1-4.1-3.2c-2.6-2.5-3.8-4.5-3.8-6V44
		c0-2.1-0.4-3.7-1.1-4.8c-0.7-1.3-2.4-2.9-4.9-5.1l-10,6.7v28.5c0,2.5,0.4,4.1,1.1,4.6c0.4,0.3,0.6,0.9,0.6,1.9V77h-2.4
		c-0.2-0.2-0.5-0.4-0.9-0.6c-1.4-0.8-3-1.3-4.7-1.3c-1.2,0-2.9,0.6-5,1.9h-1.3c0-0.3-0.1-0.5-0.1-0.7c0-0.2,0-0.4,0-0.6
		c0.1-0.2,0.1-0.4,0.1-0.6c0-0.6,0.4-2.1,1.1-4.3c0.8-2.4,1.2-3.8,1.2-4.2V39.4c0-2.5-1.2-4.2-3.5-5.1c-2.3-0.9-3.4-1.6-3.4-2.1
		c0-0.3,0.4-0.8,1.1-1.5c0.7-0.8,1.9-1.7,3.4-2.8l4.5-3.3c0.9,0,1.8,0.4,2.7,1.1c0.9,0.8,1.8,2,2.5,3.6l3.4,6.8l16.1-11.1
		c2.3,1.1,4.6,3.2,6.9,6.3c2.4,3.4,3.6,6.5,3.6,9.3v21.6c0,4.7,0.9,7.2,2.8,7.3C459.5,69.4,460.4,69.9,460.4,70.8z"/>
	<path d="M503,35.4c0,0.6-1.7,2.3-5.2,5c-1.4,1.1-2.9,2.2-4.6,3.4c-1.7,1.2-3.5,2.5-5.5,3.8l-6.7,4.4c-2.1,1.4-3.6,2.4-4.7,3.1
		c-1.1,0.7-1.6,1.2-1.6,1.5c0.6,0.9,1.2,1.7,1.8,2.4c0.5,0.7,1,1.3,1.5,1.7c3,2.8,6.3,4.2,9.8,4.2c2.9,0,5.4-0.9,7.6-2.8l5.3-6.2
		c0.6,0,1,0.2,1.1,0.7c0.2,0.4,0.2,1.1,0.2,1.9c0,4-1.9,8.1-5.7,12.3c-3.8,4.2-7.2,6.2-10.4,6.2h-4.6c-3,0-6.4-2.4-10.2-7.3
		c-3.8-4.8-5.6-9.5-5.6-13.8V45.6c0-4.1,1.9-8.6,5.6-13.4c4-5.2,7.9-7.7,11.9-7.7h3.3c1.5,0,4.7,1.7,9.5,5
		C500.5,32.8,503,34.8,503,35.4z M490.5,40.3c-2.1-1.2-4.6-3.9-7.6-8.1c-1-1.4-2.2-2.1-3.6-2.1c-1.7,0-3.3,0.9-4.7,2.8
		c-0.5,1.1-1.1,2.2-1.6,3.3s-1.1,2.2-1.6,3.3v7.5c0.4,0.2,0.6,0.8,0.7,1.8c0,0.9,0.6,1.9,1.6,3.1c0.3-0.5,2.2-1.9,5.6-4.2
		c1.9-1.2,3.7-2.4,5.6-3.7C486.7,42.9,488.6,41.6,490.5,40.3z"/>
	<path d="M532.9,43.4h-1c-0.1-0.5-0.1-1.2-0.1-1.9c0-0.4,0-1,0.1-1.8c0-0.8,0.1-1.3,0.1-1.6c0-1.1-0.2-1.8-0.5-2.4
		c-0.5-0.7-1.4-1-2.8-1c-0.8,0-1.7,0.7-2.9,2.1c-1.1,1.4-1.7,2.6-1.7,3.6v29.1c0,1.2,0.5,2.2,1.4,3.2c1,1.1,1.5,2,1.5,2.8
		c0,0.6-0.1,1-0.4,1.2c-0.3,0.2-0.7,0.3-1.2,0.3c-0.7-0.5-1.5-1-2.5-1.5s-2.1-0.7-3.4-0.7c-1.6,0-2.9,0.2-3.9,0.7
		c-1.1,0.5-2.2,1-3.3,1.5h-0.8l-0.8-1.5c0.4-0.5,0.7-1,1-1.3c0.3-0.4,0.5-0.7,0.7-0.9c1.1-1.7,1.6-3.1,1.6-4.1V40.7
		c0-2.3-0.8-4-2.3-5.1l-4.9-2.1c0-0.6,1.5-2.2,4.4-4.9c2.9-2.7,4.6-4.1,5.1-4.1c0.7,0.4,1.2,0.7,1.5,0.9c2.3,1.8,4.2,4.4,5.7,7.7
		c0.5-0.2,1.8-1.6,3.6-4.4c1.7-2.6,3.8-3.9,6.3-3.9c0.6,0,2.2,0.3,4.5,1c2.5,0.7,3.9,1.4,4.3,2L532.9,43.4z"/>
	<path d="M622,41.5c0,1.6-0.5,3.9-1.4,7c-1.5,4.4-3.5,8.3-6,11.7c-0.2,0.3-0.5,0.6-0.8,0.9c-0.3,0.4-0.6,0.8-1,1.3
		c-1.5,2.2-3,4.4-4.3,6.5c-1.4,2.1-3.1,4.3-5.2,6.6l-1.4,1.6c-0.3,0-1.6-0.7-4-2.2c-3-1.9-5.5-3.9-7.4-5.9c-2.7-2.9-4.1-5.8-4.1-8.5
		V40.1c0-2.6-0.4-4.4-1.2-5.3c-0.5-0.6-1.4-0.9-2.5-0.9h-1.1c-1,0-1.4-0.5-1.4-1.4c0-0.6,1.8-2.1,5.3-4.4l5.4-3.6
		c0.6,0,1.4,0.8,2.6,2.4c1.5,2.2,2.2,4.5,2.2,7v20.1c0,3.7,1.6,6.8,4.9,9.3c1,0.8,2.6,1.7,4.9,2.6c1.8-2.3,3.2-4.2,4.1-5.7
		c2.7-4.6,4.1-9,4.1-13.1c0-2.2-0.7-4.6-2.1-7.3c-1.4-2.7-2.8-4.1-4.3-4.1h-3.5c0-0.1-0.2-0.4-0.5-0.8c-0.3-0.4-0.4-0.8-0.4-1
		c0-0.6,2.1-2.6,6.4-6c2.2-1.8,3.7-2.7,4.5-2.7c0.8,0,2.3,1.2,4.4,3.6c2.7,3.1,4.1,6.4,4.1,9.8V41.5z"/>
	<path d="M667.5,50.6c0,7-2.7,13.4-8.1,19c-4.7,4.9-8.9,7.3-12.6,7.3c-6,0-11.1-3-15.3-8.9c-3.4-4.8-5.2-8.9-5.2-12.4v-5.1
		c0-4.9,2.1-10.4,6.2-16.5c4.4-6.4,8.6-9.6,12.7-9.6h3.8c3.8,0,7.7,2.4,11.7,7.2C665.2,37.1,667.5,43.4,667.5,50.6z M661.1,59.7
		v-5.1l-2.7-5.5c-1.1-2.1-2.2-3.9-3.3-5.5c-1.2-1.6-2.3-3.1-3.5-4.3c-3.4-3.5-7.1-5.2-10.9-5.2c-2.1,0-3.9,1-5.6,3.1
		c-1.6,2-2.4,4.4-2.4,7.2c0,4.6,2.5,9.6,7.4,14.9c4.9,5.3,9.3,7.9,13.3,7.9c1.6,0,3.1-0.7,4.4-2.1L661.1,59.7z"/>
	<path d="M721.5,70.8c0,0.4-1.4,1.6-4.3,3.8c-0.9,0.7-2.4,1.8-4.3,3.1c-0.5,0-1.9-1.1-4.1-3.2c-2.6-2.5-3.8-4.5-3.8-6V44
		c0-2.1-0.4-3.7-1.1-4.8c-0.7-1.3-2.4-2.9-4.9-5.1l-10,6.7v28.5c0,2.5,0.4,4.1,1.1,4.6c0.4,0.3,0.6,0.9,0.6,1.9V77h-2.4
		c-0.2-0.2-0.5-0.4-0.9-0.6c-1.4-0.8-3-1.3-4.7-1.3c-1.2,0-2.9,0.6-5,1.9h-1.3c0-0.3-0.1-0.5-0.1-0.7c0-0.2,0-0.4,0-0.6
		c0.1-0.2,0.1-0.4,0.1-0.6c0-0.6,0.4-2.1,1.1-4.3c0.8-2.4,1.2-3.8,1.2-4.2V39.4c0-2.5-1.2-4.2-3.5-5.1c-2.3-0.9-3.4-1.6-3.4-2.1
		c0-0.3,0.4-0.8,1.1-1.5c0.7-0.8,1.9-1.7,3.4-2.8l4.5-3.3c0.9,0,1.8,0.4,2.8,1.1c0.9,0.8,1.8,2,2.5,3.6l3.4,6.8l16.1-11.1
		c2.3,1.1,4.6,3.2,6.9,6.3c2.4,3.4,3.6,6.5,3.6,9.3v21.6c0,4.7,0.9,7.2,2.8,7.3C720.6,69.4,721.5,69.9,721.5,70.8z"/>
	<path d="M823.2,48.3c0,2.2-0.5,4.6-1.5,7.1c-1.1,2.7-2.1,4.5-3.2,5.4c-0.4,0.3-1.3,0.7-2.9,1.2c-1.1,0.3-1.6,0.9-1.6,1.8
		c0,2.6,1.3,4.8,4,6.8c2.7,1.9,4,3.2,4,3.8c-0.2,0.6-0.5,1-0.7,1.3c-0.8,0.9-1.7,1.3-2.8,1.3c-2.2,0-4.2-1.5-6.3-4.4
		c-2.2-3.2-3.4-7-3.4-11.4V36.9c0-5.1-1.5-10.6-4.5-16.4c-3.4-6.7-7.4-10-11.8-10c-0.5,0-1.7,0.7-3.4,2c-1.2,0.9-2.5,1.9-3.8,3.1
		c-1.4,1.2-2.8,2.5-4.3,4.1v46.7c0,1.4,0.4,3,1.2,4.8c0.3,0.7,0.7,1.3,1,1.8c0.3,0.5,0.7,1,1.1,1.4c-0.2,0.4-0.5,0.7-0.7,1
		c-0.2,0.3-0.5,0.5-0.9,0.5c0,0-1-0.3-3.1-0.9c-2-0.6-3.2-0.9-3.6-0.9h-2.9c-0.5,0-1.2,0.2-2.2,0.6s-1.9,0.8-2.9,1.2
		c-0.5,0-0.8-0.2-1.2-0.5c-0.5-0.5-0.8-1.1-0.8-1.7c0-0.4,0.4-1.2,1.2-2.3l1.3-1.7c0.1-0.2,0.2-0.4,0.3-0.9c0-0.2,0.1-0.5,0.1-0.9
		c0-0.4-0.1-0.7-0.1-0.9c0-0.3,0-0.5,0-0.7c0-0.9,0.2-1.9,0.7-2.8V27c-0.1-0.1-0.3-0.1-0.6,0c0-0.6,0.1-1.4,0.1-2.4
		c0-1,0.1-1.6,0.1-1.8c0-1.1-0.1-1.8-0.2-2.1h0.6c0-1.7-0.3-3.3-0.8-4.8c-0.8-2.2-1.9-3.2-3.3-3.2c-0.9,0-1.5,0.2-2,0.6
		c-0.5,0.4-0.9,0.6-1.2,0.6c-0.5,0-0.8-0.1-1-0.3c-0.2-0.2-0.3-0.8-0.3-1.9c0-0.7,1.3-2.2,3.9-4.6l9.8-9c1.6,0.9,3,2.7,4.2,5.4
		l2.9,8.9L798-1.6c5.8,1.8,10.7,5.3,14.6,10.4c1.4,1.8,2.8,3.8,4,6c1.2,2.2,2.2,4.6,2.9,7.3l1.9,7.1c0.2,0.6,0.4,1.1,0.6,1.5
		c0.2,0.4,0.3,0.9,0.4,1.2c0.6,2.2,1,4,1,5.4V48.3z"/>
	<path d="M869.1,50.6c0,7-2.7,13.4-8.1,19c-4.7,4.9-8.9,7.3-12.6,7.3c-6,0-11.1-3-15.3-8.9c-3.4-4.8-5.2-8.9-5.2-12.4v-5.1
		c0-4.9,2.1-10.4,6.2-16.5c4.4-6.4,8.6-9.6,12.7-9.6h3.8c3.8,0,7.7,2.4,11.7,7.2C866.8,37.1,869.1,43.4,869.1,50.6z M862.7,59.7
		v-5.1l-2.7-5.5c-1.1-2.1-2.2-3.9-3.3-5.5c-1.2-1.6-2.3-3.1-3.5-4.3c-3.4-3.5-7.1-5.2-10.9-5.2c-2.1,0-3.9,1-5.6,3.1
		c-1.6,2-2.4,4.4-2.4,7.2c0,4.6,2.5,9.6,7.4,14.9c4.9,5.3,9.3,7.9,13.3,7.9c1.6,0,3.1-0.7,4.4-2.1L862.7,59.7z"/>
	<path d="M902.6,23.8c0,5-2.4,8.7-7.1,11c-1.6,0.7-4,1.4-7.1,1.9v20.1c0,3.7,1,6.3,3.1,7.9c1.4,1.1,3.3,1.7,5.6,1.7
		c0.4,0,0.8,0,1.2,0c0.4,0,0.8-0.1,1-0.1c0.7,0,1.3,0.1,1.6,0.4c0.3,0.2,0.5,0.7,0.5,1.3c0,0.3-2,1.9-6,4.8c-4,2.9-6.3,4.3-6.9,4.3
		c-1,0-2.9-1.4-5.9-4.1c-3.4-3.1-5.2-5.8-5.2-8.1V35.9c-0.4-0.1-0.7,0-1,0.1c-0.3,0.1-0.6,0.3-0.9,0.6c-0.3,0.2-0.5,0.4-0.7,0.6
		c-0.2,0.2-0.3,0.3-0.4,0.3c0-0.1,0-0.2,0.1-0.2c0-0.1-0.4,0-1.1,0.2V34c1-2.7,2.3-5.1,3.9-7.1c0.5-0.7,0.8-1.2,0.8-1.7v-8.8
		c0-5.1,0.3-8.2,1-9.2c0.5-0.7,3.3-2.5,8.4-5.3h1v22.7h6.7c1.7,0,3-0.3,3.9-0.9l2.4-2.1c0.2,0,0.5,0.2,0.8,0.7
		C902.4,22.6,902.6,23.1,902.6,23.8z"/>
	<path d="M931.7,43.4h-1c-0.1-0.5-0.1-1.2-0.1-1.9c0-0.4,0-1,0.1-1.8c0-0.8,0.1-1.3,0.1-1.6c0-1.1-0.2-1.8-0.5-2.4
		c-0.5-0.7-1.4-1-2.8-1c-0.8,0-1.7,0.7-2.9,2.1c-1.1,1.4-1.7,2.6-1.7,3.6v29.1c0,1.2,0.5,2.2,1.4,3.2c1,1.1,1.5,2,1.5,2.8
		c0,0.6-0.1,1-0.4,1.2c-0.3,0.2-0.7,0.3-1.2,0.3c-0.7-0.5-1.5-1-2.5-1.5s-2.1-0.7-3.4-0.7c-1.6,0-2.9,0.2-3.9,0.7
		c-1.1,0.5-2.2,1-3.3,1.5h-0.8l-0.8-1.5c0.4-0.5,0.7-1,1-1.3c0.3-0.4,0.5-0.7,0.7-0.9c1.1-1.7,1.6-3.1,1.6-4.1V40.7
		c0-2.3-0.8-4-2.3-5.1l-4.9-2.1c0-0.6,1.5-2.2,4.4-4.9c2.9-2.7,4.6-4.1,5.1-4.1c0.7,0.4,1.2,0.7,1.5,0.9c2.3,1.8,4.2,4.4,5.7,7.7
		c0.5-0.2,1.8-1.6,3.6-4.4c1.7-2.6,3.8-3.9,6.3-3.9c0.6,0,2.2,0.3,4.5,1c2.5,0.7,3.9,1.4,4.3,2L931.7,43.4z"/>
	<path d="M982,35.4c0,0.6-1.7,2.3-5.2,5c-1.4,1.1-2.9,2.2-4.6,3.4c-1.7,1.2-3.5,2.5-5.5,3.8l-6.7,4.4c-2.1,1.4-3.6,2.4-4.7,3.1
		c-1.1,0.7-1.6,1.2-1.6,1.5c0.6,0.9,1.2,1.7,1.8,2.4c0.5,0.7,1,1.3,1.5,1.7c3,2.8,6.3,4.2,9.8,4.2c2.9,0,5.4-0.9,7.6-2.8l5.3-6.2
		c0.6,0,1,0.2,1.1,0.7c0.2,0.4,0.2,1.1,0.2,1.9c0,4-1.9,8.1-5.7,12.3c-3.8,4.2-7.2,6.2-10.4,6.2h-4.6c-3,0-6.4-2.4-10.2-7.3
		c-3.8-4.8-5.6-9.5-5.6-13.8V45.6c0-4.1,1.9-8.6,5.6-13.4c4-5.2,7.9-7.7,11.9-7.7h3.3c1.5,0,4.7,1.7,9.5,5
		C979.6,32.8,982,34.8,982,35.4z M969.5,40.3c-2.1-1.2-4.6-3.9-7.6-8.1c-1-1.4-2.2-2.1-3.6-2.1c-1.7,0-3.3,0.9-4.7,2.8
		c-0.5,1.1-1.1,2.2-1.6,3.3s-1.1,2.2-1.6,3.3v7.5c0.4,0.2,0.6,0.8,0.7,1.8c0,0.9,0.6,1.9,1.7,3.1c0.3-0.5,2.2-1.9,5.6-4.2
		c1.9-1.2,3.7-2.4,5.6-3.7C965.8,42.9,967.6,41.6,969.5,40.3z"/>
	<path d="M1087.9,37.5c0,3.1-0.6,6.9-1.9,11.5c-1.3,4.8-2.8,8.7-4.5,11.8c-0.9,1.5-2,3.1-3.4,4.8c-1.4,1.7-3,3.3-5,5
		c-4.9,4.3-9.1,6.4-12.6,6.4h-2.8c-1.6,0-3.1-0.4-4.7-1.1c-1.6-0.7-3.2-1.9-4.7-3.5l-8-8.5c-1.6-1.6-3.1-2.8-4.6-3.6
		c-1.5-0.7-3-1.1-4.3-1.1c-3.4,0-5.5,1.9-6.3,5.6c-0.8,3.7-1.9,5.6-3.2,5.6c-0.5,0-1-0.3-1.2-0.8c-0.3-0.6-0.4-1.2-0.4-2
		c0-1.2,0.3-2.5,1-3.8c0.6-1.3,1.6-2.6,3-3.8l7.2-6.6c1.4-1.3,2.4-2.7,3.1-4.2c0.6-1.5,0.9-2.9,0.9-4.4v-7.3
		c0-6.7-1.6-10.2-4.7-10.7c-1.5-0.3-2.2-0.8-2.2-1.7c0-0.4,0.1-0.7,0.3-0.9c0.2-0.3,0.6-0.5,1.3-0.5h2.8c1.1,0,2.2-0.2,3.4-0.5
		c1.2-0.3,2.6-0.9,4.1-1.7l8.6-4.7c0.6,0,0.9,0.5,0.9,1.4c0,0.6-0.5,1.4-1.4,2.4c-0.9,1.1-1.4,2.1-1.4,3.1v19.9c0,0.9,0.3,1.8,1,2.7
		c0.6,0.8,1,1.4,1,1.7c0,0.6-1,1.2-3,1.8c-2.1,0.5-3.7,1.7-4.9,3.6c0.2,0.1,0.4,0.1,0.6,0.2c0.2,0.1,0.5,0.1,0.9,0.1
		c0.4,0,0.9,0,1.5,0c0.6,0,1.4,0,2.4,0c1.1,0,2.2,0.3,3.3,0.8c1.1,0.5,2.3,1.4,3.6,2.6c1.1,1.1,2.2,2.1,3.2,3.2
		c1.1,1.1,2.1,2.1,3.2,3.1c2.5,2.3,4.8,3.5,6.9,3.5c3.7,0,7.3-2.8,10.8-8.4c3.3-5.3,4.9-10.2,4.9-14.9v-3.2c0-6.8-1.9-12.7-5.8-17.7
		c-3.9-5.1-8.2-7.7-12.8-7.7H1052l-3.8,0.7c-2.7,0.5-4.4,0.7-5.1,0.7h-8.5c-2.5,0-4.7-0.7-6.6-2.1c-2.1-1.6-3.2-3.7-3.2-6.3
		c0-2.4,0.7-4.7,2-6.9c1.4-2.2,2.8-3.2,4.3-3.2c0.4,0,0.8,0.5,1,1.4c0.6,2.2,2.1,3.3,4.6,3.3c3.1-0.5,6-0.9,8.9-1.3
		c2.8-0.4,5.2-0.6,6.9-0.6h11.7c6.9,0,12.7,3.3,17.4,9.9c4.2,5.8,6.3,12,6.3,18.7V37.5z"/>
	<path d="M1132.6,72.8c-3.3,2.5-5.1,3.8-5.4,3.8c-1.3,0-2.5-0.9-3.7-2.6l-3.8-5.7c-0.1,0-2.1,1.4-5.8,4.3c-3.8,2.9-5.9,4.3-6.3,4.3
		c-3.3,0-6.6-1.9-10.2-5.8c-4.2-4.6-6.3-10.2-6.3-16.8c0-6,2.7-12.4,8.2-19.1c5.8-7.2,11.7-10.7,17.8-10.7c1.2,0,3.1,1,5.7,3
		c2.6,2,4.4,3,5.5,3c1.4,0,3.5-1.2,6.2-3.7h1.3v1.5c-1.7,2.3-3.1,4.6-4.3,6.8c-1.3,2.5-2,5.1-2,8v17c0,3.4,1.3,5.6,3.9,6.8
		c2.7,1.2,4,1.9,4,2.3L1132.6,72.8z M1124.2,40.3c-0.5-0.3-1.1-0.5-1.6-0.5c-0.4,0-0.8,0.1-1.1,0.2c-0.3,0.1-0.6,0.2-0.9,0.3
		c-1.8,0-3.9-1.3-6.3-3.8c-2.3-2.5-4.2-3.8-5.6-3.8c-2.2,0-4,1.3-5.6,3.8c-1.5,2.5-2.3,5.4-2.3,8.7c0,0.2-0.1,0.6-0.3,1.2
		c-0.2,0.7-0.3,1.3-0.3,1.8c0,3.4,1.6,7.5,4.8,12.3c2.4,3.6,5.2,5.5,8.3,5.5c1.2,0,2.5-0.3,3.8-0.9l2.1-1V49
		c0.3-0.4,0.5-0.8,0.8-1.2c0.2-0.4,0.4-0.7,0.6-1.1c0.5-0.9,1.1-2,1.6-3.2c0.6-1.3,1.2-2.7,1.9-4.3V40.3z"/>
	<path d="M1213.9,71.3c0,0.4-1.3,1.6-4,3.7c-2.6,2.1-4,3.2-4.3,3.2c-1.2,0-2.8-1.4-4.9-4.1c-2.1-2.7-3.1-5.1-3.1-7
		c0.1-0.7,0.2-1.8,0.2-3.3c0.1-1.5,0.1-3.5,0.2-6c0.1-2.5,0.2-5.1,0.2-7.8c0-2.7,0.1-5.6,0.1-8.7c0-1.2-0.6-2.6-1.7-4.3
		c-1.3-1.9-2.6-2.9-3.9-2.9c-0.5,0-2.2,1.1-5,3.2c-2.9,2.1-4.3,3.4-4.3,4V69c0,0.1,0.1,0.4,0.2,0.9c0.2,0.5,0.4,1.1,0.8,2
		c0.4,0.8,0.7,1.5,1,2.2c0.3,0.7,0.5,1.3,0.8,1.8c-0.5,0.3-0.9,0.5-1.1,0.5c-0.2,0-0.4-0.1-0.4-0.2c-0.1-0.2-0.2-0.2-0.2-0.2
		c-0.6,0-1.3,0-1.9-0.1c-0.6-0.1-1.3-0.2-1.9-0.5c-0.2-0.1-0.5-0.1-0.7-0.2c-0.2-0.1-0.5-0.2-0.8-0.3l-1.8,0.4
		c-0.6,0.2-1.3,0.4-1.9,0.6c-0.6,0.3-1.2,0.6-1.7,0.9h-1.9v-1.5c0.4-1.6,0.8-3.2,1.1-4.9c0.3-1.7,0.5-3.3,0.5-4.6V41.6
		c0-2.1-0.8-3.9-2.4-5.5c-1.3-1.3-2.5-1.9-3.5-1.9c-0.9,0.6-1.6,1.1-2.2,1.5c-0.6,0.4-1.1,0.9-1.5,1.2c-2.6,2.2-3.8,3.7-3.8,4.6
		v26.3c0,2.5,0.4,4.3,1.1,5.3c0.8,1.1,1.2,1.8,1.2,2.2c0,1.1-0.4,1.6-1.2,1.6c-0.3,0-1.4-0.5-3.3-1.5c-1-0.5-2-0.8-3-0.8
		c-0.4,0-1.2,0.3-2.5,0.9c-1.3,0.6-2.3,0.9-2.8,0.9c-0.6,0-1-0.1-1.3-0.2c-0.3-0.2-0.4-0.6-0.4-1.3c0.5-0.8,1-1.9,1.4-3.4
		c0.4-1.5,0.6-3.4,0.6-5.8V40.4c0-1.1-0.5-2.3-1.4-3.7c-0.9-1.4-1.9-2.1-2.8-2.1c-0.6,0-1.2,0.1-1.7,0.2c-0.5,0.1-0.9,0.3-1.3,0.4
		c-0.3,0-0.4-0.2-0.4-0.6c0-1.1,1.7-3.1,5-6c0.5-0.5,1.2-1.1,2.1-1.8c0.8-0.7,1.8-1.5,3-2.4c1.2,0,2.9,1.9,5.1,5.7
		c0.4,0.6,0.8,1.4,1.2,2.4c0.4,0.9,1,2.1,1.5,3.3l13.5-11.4c1.6,0,3.8,1.8,6.6,5.5c0.5,0.6,1,1.3,1.6,2.3c0.6,0.9,1.4,2,2.1,3.2
		l14.6-11.4c2.2,1.2,4.5,3.2,6.7,6.2c2.4,3.1,3.6,5.9,3.6,8.3v22.1c0,3.9,0.4,6.5,1.2,7.9c0.5,0.8,1.2,1.3,2.3,1.3
		c0.8,0,1.3,0.1,1.4,0.2C1213.8,70.3,1213.9,70.7,1213.9,71.3z"/>
	<path d="M1258.6,35.4c0,0.6-1.7,2.3-5.2,5c-1.4,1.1-2.9,2.2-4.6,3.4c-1.7,1.2-3.5,2.5-5.5,3.8l-6.7,4.4c-2.1,1.4-3.6,2.4-4.7,3.1
		c-1.1,0.7-1.6,1.2-1.6,1.5c0.6,0.9,1.2,1.7,1.8,2.4c0.5,0.7,1,1.3,1.5,1.7c3,2.8,6.3,4.2,9.8,4.2c2.9,0,5.4-0.9,7.6-2.8l5.3-6.2
		c0.6,0,1,0.2,1.1,0.7c0.2,0.4,0.2,1.1,0.2,1.9c0,4-1.9,8.1-5.7,12.3c-3.8,4.2-7.2,6.2-10.4,6.2h-4.6c-3,0-6.4-2.4-10.2-7.3
		c-3.8-4.8-5.6-9.5-5.6-13.8V45.6c0-4.1,1.9-8.6,5.6-13.4c4-5.2,7.9-7.7,11.9-7.7h3.3c1.5,0,4.7,1.7,9.5,5
		C1256.2,32.8,1258.6,34.8,1258.6,35.4z M1246.1,40.3c-2.1-1.2-4.6-3.9-7.6-8.1c-1-1.4-2.2-2.1-3.6-2.1c-1.7,0-3.3,0.9-4.7,2.8
		c-0.5,1.1-1.1,2.2-1.6,3.3s-1.1,2.2-1.6,3.3v7.5c0.4,0.2,0.6,0.8,0.7,1.8c0,0.9,0.6,1.9,1.7,3.1c0.3-0.5,2.2-1.9,5.6-4.2
		c1.9-1.2,3.7-2.4,5.6-3.7C1242.4,42.9,1244.3,41.6,1246.1,40.3z"/>
</g>
</svg>
