<svg xmlns="http://www.w3.org/2000/svg" viewBox="0 0 946.7 847.4"><defs><style>.cls-1,.cls-4,.cls-5,.cls-6{fill-rule:evenodd;}.cls-2,.cls-6{fill:none;}.cls-2{stroke:#fff;stroke-width:3px;}.cls-3,.cls-4{fill:#fff;}.cls-5{fill:#bd0d0c;}.cls-6{stroke:#000;stroke-width:5px;}</style></defs><title>logo</title><g id="FasT"><g id="T"><path class="cls-1" d="M649.7,460.6a43.4,43.4,0,0,1-7.8-.9c-2.2-.3-4.4-.7-6.7-.9l-2.3-248.4h-1.4c-12.1-.4-164.9-.8-312.7-1.1s-299.9-.8-312.5-1.2a5.1,5.1,0,0,1-4.4-4c-1.4-4.6.9-12.9,11.6-22.3H845.3a9.4,9.4,0,0,1,3.1,7.9c-.5,6.4-6.1,13.5-14.3,18.5-11.3.3-47.2.7-81.9,1.1s-71.5.7-82.5,1.1h-1.4V446.4c-6.8,12.5-13.2,14.2-18.6,14.2Z"/><path d="M844.7,183.3a7.6,7.6,0,0,1,2.2,6.3c-.5,5.8-5.6,12.4-13.2,17.1-11.7.3-47.2.7-81.6,1.1s-71.5.7-82.4,1.1h-2.9V446c-6.3,11.5-12.2,13.1-17.1,13.1a40.3,40.3,0,0,1-7.5-.9,50.4,50.4,0,0,0-5.6-.7l-1.8-205.8-.4-39.8V209h-2.9c-12.1-.4-164.9-.8-312.7-1.1S19.7,207,6.4,206.7a4.1,4.1,0,0,1-3.1-3c-1.2-4,1-11.6,10.7-20.4H844.7m1.2-3H12.9c-17.3,15-14.7,28.2-6.8,29.3,24.1.8,601.2,1.6,625.3,2.3q1.2,124.2,2.3,248.4c5.3,0,10.7,1.8,16,1.8s13.4-2.8,20.1-15.3V211.9c21.8-.7,143-1.5,164.8-2.3,13.7-8,20.1-22,11.3-29.3Z"/></g><g id="schiefen"><path class="cls-1" d="M165.9,574.9c-6-1.4-14.6-2.5-19.5-3.6s-6.9-2.5-8.1-5c-2.2-4.3.2-9.2,6-12.1a21.2,21.2,0,0,1,7.5-2.1,70.9,70.9,0,0,0,7.3-1.8,15.8,15.8,0,0,0-1.1-7.5c-1.4-1.4-6.6-3-15.4.6l-4.2,1.7c-12.8,6.3-18.3,17.2-13,28.1,2.4,4.8,6.6,8.2,12.9,10.3l4.8,1.3c4.6,1,10.8,2.1,15.8,2.9s9,3,10.6,6.2c2.3,4.7.8,9.5-4,12.6a14,14,0,0,1-2.6,1.6,30.1,30.1,0,0,1-11.9,3.1,10.8,10.8,0,0,0-4.3.7l-.6.3a14.5,14.5,0,0,0,1.2,8.2c3.2,2.9,12,1.7,20.7-2.6,13.1-6.5,20.4-18.4,13.9-31.6C179,580.3,174.4,576.7,165.9,574.9Zm64-14a33.9,33.9,0,0,1-9,10.5c-8.3,6.2-19.1,8.3-32.7-9.9-11.4-15.2-10.9-26.4-3.4-33l1.7-1.5a26,26,0,0,1,8.8-4,16.8,16.8,0,0,0,4-1.8l.6-.5a18.8,18.8,0,0,0-2.9-7.4c-1.8-1.3-9.9-.5-17.4,5.1-6,4.5-11.2,10.8-12.7,19.1s.4,19.7,10.4,33.2c18.9,25.3,34.3,21.6,48,11.4,4.6-3.4,7.9-7.7,9.1-11.1a9.6,9.6,0,0,0-1-7.1A18.6,18.6,0,0,0,229.9,560.9Zm21.5-70.7c-15.2-14.5-24.5-17.4-35.1-6.3a27.5,27.5,0,0,0-5.8,8.7,31.7,31.7,0,0,0-2.2,11.7L184.1,481c-4.8-4.6-6.5-5.8-8.4-6.3-4.6,4.8-7,8.2-5.8,12,2.8,2.4,6.2,5.5,11,10.1l43.5,41.8c9.3,9,17,16.6,23.4,23,5.9-6,7.2-7.4,7.5-9.9s-2.5-4.6-4.9-6.9l-34.6-33.3c-.1-5.1,1.2-11.5,5.6-16.1s8.7-5.2,16.2,1.4a33.5,33.5,0,0,1,5.2,4.5l27.5,26.5a18.3,18.3,0,0,0,6,4.2c6.6-6.8,7.7-8.4,7.6-10.6-4.3-4-9.5-9-15.8-15.1Zm-36.1-43.8c5,3.9,8.4,4.2,11.8-.2s1.8-8.7-2.4-12.3-7.3-4.5-11.2.5S210.7,442.8,215.3,446.4Zm81.3,45.2-42.3-33.2c-5.2-4.1-7.2-5.5-9.6-6-4,5.1-6.6,9.3-5,12.6,3.3,2.4,7.3,5.3,13,9.8l22,17.3c7.6,5.9,14.8,11.8,21.1,16.8,5.4-7.1,6.7-8.8,6.2-10.7S299.4,493.8,296.6,491.6Zm38.9-51.4a30.5,30.5,0,0,0-5.8-2.8c-.6,5.7-2.9,11.2-6.6,16.7-6.2,9.2-14.9,12.3-29.4,2.7,1.5-2,2.7-3.7,4.1-5.8a199.7,199.7,0,0,0,10.6-17.6c1.9-3.9,3.3-9.2,3.2-11.2a50.8,50.8,0,0,0-7.2-6c-2.3-1.5-4.5-2.7-6.5-3.9-12.1-6.4-23.4-5.2-31.3,6.6-9.7,14.4-7.4,31.5,17.9,48.5,10.9,7.3,20.7,10.5,28.5,9.1s14.2-7.5,18.3-13.6a53.5,53.5,0,0,0,5.4-10.9C338.2,447.7,338,442.1,335.5,440.2Zm-49.8,10.9c-12.3-9.2-14.8-18.1-12.1-23.9a3.3,3.3,0,0,1,.7-1.3c3.9-5.9,9.7-6.2,17.5-1.9l2.9,1.8a15.2,15.2,0,0,1,3.9,3.5,9,9,0,0,1-1.2,3.6c-1.4,2.6-4.9,8.1-8.3,13.2Zm69.5-37.2L302.8,384c2.4-4.2,4.6-7.9,6-11a7.4,7.4,0,0,0,.3-1.8c.4-2.3-.6-3.8-6.8-7.9-.9,1.9-2.6,4.9-4.3,7.9l-4.3,7.4c-3-1.8-6-3.5-8.8-5.3-11.5-7.3-11-14.5-7.4-20.7a26.6,26.6,0,0,1,3.7-5.2c.9-.9,2-1.9,2.1-2.4a8.8,8.8,0,0,0-1.8-3.2,9.9,9.9,0,0,0-2.6-2.4,3.9,3.9,0,0,0-2.4-.9c-2.1.5-5.3,3.2-8.5,8.8-5.6,9.6-8.5,24.7,8.9,36.7a89.4,89.4,0,0,0,9.9,6.5c-.8,2.8-1.5,4.8-1.8,6s-.3,3.4,4.5,6.8c1.9-.8,3.8-3.2,6.5-7.5L331.4,416c5.6,3.3,11.1,6.7,16.6,9.8a20.5,20.5,0,0,0,3.2,1.7,28.3,28.3,0,0,0,2-2.8,62.9,62.9,0,0,0,4-8.2C357.4,415.2,355.9,414.3,355.2,413.9Zm29.6-64.8a36,36,0,0,0-6.1-2c.1,5.7-1.5,11.4-4.5,17.4-5,9.8-13.3,14-28.9,6.3,1.3-2.2,2.2-4,3.4-6.3a204.7,204.7,0,0,0,8.4-18.8c1.3-4.1,2.1-9.5,1.7-11.5a38.5,38.5,0,0,0-7.9-5A69.2,69.2,0,0,0,344,326c-12.8-4.8-23.8-2.3-30.2,10.4-7.8,15.6-3.5,32.3,23.7,46,11.7,5.9,21.9,7.9,29.4,5.5s13.2-9.1,16.5-15.8a49,49,0,0,0,4-11.4C388.4,356.2,387.5,350.7,384.8,349.1Zm-48.1,17c-13.3-7.6-16.9-16.2-14.9-22.3a2.1,2.1,0,0,1,.5-1.3c3.2-6.4,8.8-7.4,17.1-4.1,1,.5,2,.8,3.1,1.4a14,14,0,0,1,4.3,3.1,7,7,0,0,1-.7,3.6c-1.1,2.9-3.9,8.7-6.7,14.2ZM418,287.6c-5.8-2.4-12.9-5.2-20.8-8.7L375,269.3c-16.4-7.1-27-7.7-34.5,9.6a32,32,0,0,0-2.3,9.7,33.2,33.2,0,0,0,1.4,12.4c-2.7-.4-5.2,0-6.3,2.7a1.7,1.7,0,0,0-.3,1c.1,3.9.3,6.2.8,7.3a32.7,32.7,0,0,1,11.6,2.9l24.7,10.7c11.2,4.8,20.4,9,28.2,12.5,3.2-7.9,4-9.4,3.3-11.8s-3-3.2-6.1-4.5l-45.2-19.6c-2.1-4.5-3-9.9-.7-15.1,3.7-8.7,9-9.7,20.1-4.9l38.5,16.6a14.8,14.8,0,0,0,6.4,1.5C418.2,292,418.7,289.6,418,287.6Z"/></g><g id="am"><path class="cls-1" d="M75.9,355.5c0-8.4.4-21.1.4-32v-7.1c0-13.4-3.8-21.2-15.5-21.9a53.3,53.3,0,0,0-5.6-.2c-10.5.3-20,4.4-23.3,7.6a4.7,4.7,0,0,0-.4,1.7,5,5,0,0,0,.2,1.8c.3,1.9.9,4.7,2.4,6.3a12.5,12.5,0,0,0,4.6-1.3c4.5-1.9,11-4.1,16.5-4.1s7.6,4,7.6,11.1v9a24.7,24.7,0,0,0-5.2-.5,33.9,33.9,0,0,0-4.4.2c-9.5.9-26.7,5.8-26.7,25.3,0,14.5,9.6,20.8,19.7,20.8,4.3,0,8.1-.3,11.6-2a26.4,26.4,0,0,0,4.6-3.7c1.5,2.3,5.6,5.7,9.4,5.7s7.1-1.9,8.4-3.6,0-3.6.2-5.9C75.3,363.7,75.9,355.5,75.9,355.5Zm-13.1-8.9a53.4,53.4,0,0,1-.3,7.6,6.4,6.4,0,0,1-.5,2.2c-2.2,2.7-7.4,4.9-12.1,4.9H48.8c-4.9-.3-8.4-3.1-8.4-11.2,0-10,6.5-13.3,14.1-14.5a39.3,39.3,0,0,1,5.2-.4,15.1,15.1,0,0,1,3.1.2Zm121.1,1.8V321.8c0-15.8-3.3-26.1-17.3-27.2h-3.1a30.2,30.2,0,0,0-9.7,1.5,32.7,32.7,0,0,0-11.3,6.4c-2.7-4.6-6.8-7.5-13.9-7.9a15.2,15.2,0,0,0-2.9-.2,29.8,29.8,0,0,0-9.9,1.6,32.7,32.7,0,0,0-10.9,6.1c-.7-2.6-1.9-4.7-4.9-4.7a2.6,2.6,0,0,0-1.1.2c-3.5,1.5-5.6,2.6-6.4,3.6a34.6,34.6,0,0,1,1.9,11.8v28.3c0,11.9,0,21.7-.1,29.8,8.3,0,10.1,0,12.1-1.6s1.6-3.2,1.6-5.9V312.3c3.3-3.6,7.9-6.6,13.8-6.6,7.9,0,10.6,4.4,10.6,16.7v19c0,11.9,0,21.5-.4,29.6h6.5a37.3,37.3,0,0,0,5.5-.2,2.3,2.3,0,0,0,2.1-2.5V312.5c3.3-3.7,7.9-6.7,13.4-6.7,8.1,0,10.6,4.5,10.6,16.8v43.3a11.7,11.7,0,0,0,1.1,5.1c8.9,0,11.1-.5,13-1.9C183.9,363.4,183.9,356.3,183.9,348.4Z"/></g><g id="urm"><path class="cls-1" d="M759,408c0-13.9.2-25.5.4-35.2-9.8.2-11.8,0-13.9,1.8s-2,4.7-2,8.5v57.4c-3.1,3.8-9.6,6.7-15.9,6.3-8.7,0-13.7-3.4-13.7-19.6l1.8-33.1c0-9.2-.9-13.2-2-17.3s-2.6-6.2-6.5-6.2a5.4,5.4,0,0,0-1.5.2c-4.7,2.2-7.4,3.8-8.5,5a47.1,47.1,0,0,1,2.6,15.9L698,429.5c.3,19.2,4.5,29.8,25.4,30.7a33.1,33.1,0,0,0,11.2-2,36.2,36.2,0,0,0,12.5-7c.7,3.1,2.3,5.4,5.6,5.4a3.2,3.2,0,0,0,1.2-.2c4-1.8,6.4-3,7.3-4.1a38.6,38.6,0,0,1-2.2-13.6Zm55.8-36.3c-3.3-.5-6.3.4-9.8,1.4a37.3,37.3,0,0,0-12.2,7.1c-.9-3.1-2.4-5.4-5.6-5.4h-1.3c-4.1,1.9-6.3,3.1-7.4,4.2a38.3,38.3,0,0,1,2.3,13.6v30.5c0,14.1-.2,25.6-.4,35.4,9.8,0,11.9-.2,14.3-1.8s1.6-4.2,1.6-7.2V391.9c3.6-3.8,8.3-5.8,14.3-5.8a9.6,9.6,0,0,1,3.2.4,36.2,36.2,0,0,0,4.3.4,4.2,4.2,0,0,0,1.7-.2,22,22,0,0,0,2.9-10.5C822,373.7,819.5,372.2,814.8,371.7Zm122.3,61.1V402.4c0-18.1-3.8-29.8-19.7-31.1h-3.6a33.1,33.1,0,0,0-11.1,1.8,37.8,37.8,0,0,0-13,7.2c-3-5.3-7.7-8.5-15.9-9a17.7,17.7,0,0,0-3.2-.2,33.2,33.2,0,0,0-11.4,1.8,36.7,36.7,0,0,0-12.4,7c-.8-3-2.2-5.4-5.6-5.4a3.7,3.7,0,0,0-1.3.2c-4,1.8-6.3,3.1-7.2,4.1a41.7,41.7,0,0,1,2.1,13.6v32.3c0,13.6,0,24.8-.1,34,9.5,0,11.5,0,13.9-1.8s1.8-3.6,1.8-6.7V391.6c3.8-4.2,9-7.6,15.7-7.6,9,0,12.1,5,12.1,19.1v21.7c0,13.6,0,24.6-.4,33.8h7.4a48.4,48.4,0,0,0,6.3-.2,2.6,2.6,0,0,0,2.4-2.9V391.7c3.8-4.1,9-7.5,15.3-7.5,9.3,0,12.1,5,12.1,19.1v49.5a13.1,13.1,0,0,0,1.3,5.8c10.1,0,12.6-.5,14.8-2.2C937.1,449.9,937.1,441.8,937.1,432.8Z"/></g><g id="Freilicht_bühne" data-name="Freilicht bühne"><path class="cls-1" d="M14.3,49.9c.2,5.7.4,11.9.4,19.8v96.1a15.6,15.6,0,0,0,7.6,1.5,20.9,20.9,0,0,0,8.7-2.2c-.2-16.6-.4-33.8-.4-53.5H57.9c4.5,0,6.5-1.6,7.2-12.8H30.6V59.6H53.7c5.4,0,8.7,0,11.2-.7s3.4-2.9,4.2-11.8h-45C19.6,47.3,16,49.3,14.3,49.9ZM116.4,80.4c-3.3-.6-6.3.3-9.8,1.4a37.6,37.6,0,0,0-12.3,7.1c-.9-3.1-2.3-5.4-5.5-5.4H87.5c-4.2,1.8-6.3,3.1-7.4,4.2a40.6,40.6,0,0,1,2.3,13.5l-.2,30.6c0,14.1-.1,25.6-.3,35.4,9.7,0,11.9-.2,14.3-1.8s1.6-4.2,1.6-7.3V100.6A18.7,18.7,0,0,1,112,94.8a10.5,10.5,0,0,1,3.3.4,34.4,34.4,0,0,0,4.3.4,4.7,4.7,0,0,0,1.7-.2,21.8,21.8,0,0,0,2.8-10.5C123.6,82.4,121.1,80.9,116.4,80.4Zm49.8-.7c-19.8,0-34.7,13-34.7,47.8,0,15,3.3,26.4,9.6,32.9s16.1,8.7,24.6,8.7a58.2,58.2,0,0,0,13.7-1.8c5.1-1.3,10.3-5.1,10.5-8.7a45.6,45.6,0,0,0-1.1-7.2c-5.8,3.1-12.5,4.3-20.1,4.3-12.6,0-21.1-6.3-21.3-26.2,2.9.2,5.3.2,8.2.2a217.3,217.3,0,0,0,23.4-1.1c4.9-.7,10.9-2.7,12.7-4.1a48.9,48.9,0,0,0,1.1-10.7c0-3.1-.2-6-.4-8.7C190.8,89.6,182.5,79.7,166.2,79.7Zm10.5,37a9.9,9.9,0,0,1-4.2,1.1c-3.4.3-10.8.5-17.8.5h-6.9c.9-17.5,7.8-25.6,15-26.7a4.4,4.4,0,0,1,1.6-.2c8.1,0,12.1,5.2,13,15.4,0,1.2.2,2.5.2,3.9A19.5,19.5,0,0,1,176.7,116.7Zm39.9-76.1c-6.5,0-9.6,3.5-9.6,10.2s2.2,10.4,8.5,10.4,9.2-4.5,9.4-10.8S223.8,40.6,216.6,40.6Zm-9,45.2c.2,4.7.3,10.3.3,18.6v32c0,11-.1,21.7-.1,30.9,10.1-.2,12.6-.2,13.9-2s2.1-5.4,2.1-9.6V94.3c0-7.6-.2-10.3-1.4-12.8C215,81.5,209.4,82,207.6,85.8Zm52.3,64v-94c0-9-.1-13.2-1.2-16.8-7.4,0-12.8.6-14.6,4.7.1,5.4.3,11.6.3,20.4v93.4a11.1,11.1,0,0,0,4.3,9.1c2,1.2,4.4,2.3,6.5,2.3,4.7-.2,8.2-2,9.6-4.1s0-4.2.2-6.7C259.4,159.2,259.9,149.8,259.9,149.8Zm20.4-64c.2,4.7.4,10.3.4,18.6v32c0,11-.2,21.7-.2,30.9,10.1-.2,12.7-.2,13.9-2s2.2-5.4,2.2-9.6V94.3c0-7.6-.2-10.3-1.4-12.8C287.8,81.5,282.2,82,280.3,85.8Zm9.1-45.2c-6.5,0-9.6,3.5-9.6,10.2s2.2,10.4,8.5,10.4,9.2-4.5,9.4-10.8S296.6,40.6,289.4,40.6Zm59,51.9a11.4,11.4,0,0,1,2.6-.2,27,27,0,0,1,10.8,2.4,21.3,21.3,0,0,0,4.9,1h.9a21.4,21.4,0,0,0,2.3-8.8c-.7-2.4-8.6-7.2-19.3-7.2-8.7,0-17.7,2.1-24.7,8.8s-13.2,18.3-13.2,37.4c0,36.1,16.6,43.4,36.1,43.4,6.5,0,12.5-1.7,15.9-4a11.2,11.2,0,0,0,4-7.2,23.6,23.6,0,0,0-1.1-5.1,38.3,38.3,0,0,1-15.6,3.4c-11.7,0-23.1-5.4-23.1-31.4C328.9,103.3,337.1,93.4,348.4,92.5Zm96.5,21.1c0-24-5.1-33.9-22.6-33.9a34.5,34.5,0,0,0-11.8,2.1,38.4,38.4,0,0,0-11.3,7.4V50.9c0-7.6-.4-9.9-1.5-11.9-7.6,0-12.3.7-14.4,4.7.2,4.2.3,9.4.3,17v69c0,14.8-.1,27.1-.3,37.6,9.6,0,11.7,0,14.1-1.8s1.8-5.6,1.8-9.4V101.2c4.1-4.2,10.4-8.2,17.7-8.2s11.2,3.1,11.7,14.5a40.2,40.2,0,0,1,.4,7.7V159a22.1,22.1,0,0,0,1.2,8.3c10.9,0,13-.4,14.8-2.2-.1-6.7-.1-15-.1-24.9Zm55-19.7a32.5,32.5,0,0,0,4.4-.3c2.5-.6,3.6-2.6,4.1-11.6H485.1c0-7.4.2-15,.4-23.3-8.5.5-12.3,3.6-13.6,7.2L471,82.2c-2.7,1.3-8.3,1.8-10.8,4s-1.6.7-1.6,6.3c2.2,1.1,5,1.8,10.8,1.8v44.6c0,14.7,3.1,30.4,19.9,30.4,5.6,0,11.7-1.3,15.2-3.5a6.3,6.3,0,0,0,2.7-3.6c.1-1.6.1-3.4.1-5a23.3,23.3,0,0,0-.3-4c-1.5,1.3-9.8,3.8-12.5,3.6-7.2,0-8.8-7-9.5-17.2,0-5.9-.2-13-.2-20.9s.2-16.3.3-24.6C492.9,94.1,495.2,94.1,499.9,93.9Zm99.9-14.2a35.8,35.8,0,0,0-20.9,6.6V52.7c0-8.1-.4-11.2-1.5-13.7-7.4,0-12.6.7-14.4,4.9.1,4.3.3,9.6.3,17.5v92.5c0,4.2.4,7.4,1.6,10.3,5.1,3.1,13.4,4.9,23.2,4.9,7.2,0,16.2-1.6,23.6-6.7,9.2-6.9,17.5-20.2,17.5-45.2C629.2,90.5,616.4,79.7,599.8,79.7Zm-10.1,77.5a24,24,0,0,1-10.8-2.4V97.5c3.9-3.4,9.5-5,14.4-5,11.9,0,19,7,19,27.3C612.3,149,600,157.2,589.7,157.2ZM689,64.5c6.9,0,8.7-4.2,8.9-10.1s-1.1-9.1-7.8-9.1-9,3.3-9,9.4S683.2,64.5,689,64.5Zm-28.3,0c6.8,0,8.6-4.2,8.8-10.1s-1.1-9.1-7.8-9.1-9,3.3-9,9.4S654.9,64.5,660.7,64.5Zm45.1,52.2c0-13.9.2-25.5.4-35.2-9.8.1-11.8,0-13.9,1.8s-2,4.7-2,8.5v57.4c-3.1,3.8-9.6,6.7-15.9,6.3-8.7,0-13.7-3.4-13.7-19.7l1.8-36.6c0-9.2-.4-13.6-1.5-17.7-9.2,0-13,.5-14.8,2.5.2,6.7.4,13.9.4,24.2l-1.8,30c.3,19.1,4.5,29.8,25.4,30.7a33.1,33.1,0,0,0,11.2-2,36.2,36.2,0,0,0,12.5-7c.7,3,2.3,5.4,5.6,5.4a3.2,3.2,0,0,0,1.2-.2c4-1.8,6.4-3.1,7.3-4.1a39,39,0,0,1-2.2-13.6Zm82.5-3.1c0-24-5-33.9-22.5-33.9A34.1,34.1,0,0,0,754,81.8a40.1,40.1,0,0,0-11.4,7.4V50.9c0-7.6-.3-9.9-1.4-11.9-7.6,0-12.3.7-14.5,4.7.2,4.2.4,9.4.4,17v69c0,14.8-.2,27.1-.4,37.6,9.6,0,11.8,0,14.1-1.8s1.8-5.6,1.8-9.4V101.2c4.2-4.2,10.5-8.2,17.7-8.2s11.2,3.1,11.8,14.5a53.4,53.4,0,0,1,.3,7.7V159a21.9,21.9,0,0,0,1.3,8.3c10.8,0,13-.4,14.8-2.2-.2-6.7-.2-15-.2-24.9Zm81.7-2c0-20.4-4.2-31.8-25.7-31.8a35.7,35.7,0,0,0-11.2,2,37,37,0,0,0-12.4,7.1c-.8-3.1-2.4-5.4-5.6-5.4h-1.3c-4,1.8-6.3,3.1-7.2,4.2a41.1,41.1,0,0,1,2.1,13.5v30.8c0,13.9-.1,25.4-.3,35.2,9.7-.2,11.7,0,13.9-1.8s2-4.7,2-8.5V100.6c3.8-4.1,9-7.6,15.5-7.6,10.8,0,14.3,5.1,14.3,19v47.9c0,2.9.3,5.4,1.4,7.4,10.3,0,13-.6,14.8-2.2-.2-7.2-.3-15.9-.3-25.8Zm63,17c4.9-.7,10.8-2.7,12.6-4.1a48.9,48.9,0,0,0,1.1-10.7c0-3.1-.2-6-.4-8.7-1.6-15.5-9.9-25.4-26.1-25.4-19.9,0-34.7,13-34.7,47.8,0,15,3.2,26.4,9.6,32.9s16,8.7,24.5,8.7a58.2,58.2,0,0,0,13.7-1.8c5.1-1.3,10.3-5.1,10.5-8.7a36.4,36.4,0,0,0-1.1-7.2c-5.8,3.1-12.4,4.3-20,4.3-12.7,0-21.1-6.3-21.3-26.2,2.9.2,5.2.2,8.1.2A219.3,219.3,0,0,0,933,128.6Zm-31.3-10.3c.9-17.5,7.8-25.6,15-26.7a4.7,4.7,0,0,1,1.6-.2c8.2,0,12.1,5.2,13.1,15.4,0,1.2.1,2.5.1,3.9a16.9,16.9,0,0,1-.9,6,9.9,9.9,0,0,1-4.1,1.1c-3.5.3-10.9.5-17.9.5Z"/></g></g><g id="Logoturm"><g id="Turm"><g id="Links"><path class="cls-1" d="M538.9,10.9c-28.3,216.8-175,485.5-175,485.5L422,533.7S593,379,538.9,10.9Z"/><path class="cls-2" d="M538.9,10.9c-28.3,216.8-175,485.5-175,485.5L422,533.7S593,379,538.9,10.9Z"/></g><g id="Rechts"><path class="cls-1" d="M536.6,54.9C570.5,286.4,555.8,542,555.8,542l40.1,5.3S622.4,422.1,536.6,54.9Z"/><path class="cls-2" d="M536.6,54.9C570.5,286.4,555.8,542,555.8,542l40.1,5.3S622.4,422.1,536.6,54.9Z"/></g><g id="Mitte"><path class="cls-1" d="M538.9,18.8C514,382.4,417,534.8,417,534.8l119.6,28.3S633.7,515.6,538.9,18.8Z"/><path class="cls-2" d="M538.9,18.8C514,382.4,417,534.8,417,534.8l119.6,28.3S633.7,515.6,538.9,18.8Z"/></g><g id="Spitze"><ellipse cx="537.7" cy="24" rx="12.4" ry="13.5"/><ellipse class="cls-2" cx="537.7" cy="24" rx="12.4" ry="13.5"/></g><g id="Form_4" data-name="Form 4"><path class="cls-1" d="M426,577.5l-.7-.2L350.8,548a1.9,1.9,0,0,1-1.2-2.3l13.5-56.5a1.6,1.6,0,0,1,1.1-1.3,1.1,1.1,0,0,1,.8-.2h.8l67.8,29.4a2,2,0,0,1,1.2,2.1L428,575.7a2,2,0,0,1-1,1.5A1.7,1.7,0,0,1,426,577.5Z"/><path class="cls-3" d="M365,489.7,432.8,519,426,575.5l-74.5-29.4L365,489.7m0-4a3.3,3.3,0,0,0-1.7.4,3.7,3.7,0,0,0-2.1,2.6l-13.6,56.5a3.9,3.9,0,0,0,2.4,4.6l74.5,29.4a4,4,0,0,0,1.5.3,3.6,3.6,0,0,0,2-.6,4,4,0,0,0,2-2.9l6.7-56.5a3.8,3.8,0,0,0-2.3-4.1L366.6,486a4.1,4.1,0,0,0-1.6-.3Z"/></g><g id="Form_4_Kopie" data-name="Form 4 Kopie"><path class="cls-1" d="M536.6,611.4H536L423.1,575.1a1.9,1.9,0,0,1-1.3-2.2l9-54.2a1.9,1.9,0,0,1,.9-1.4,2,2,0,0,1,1.1-.3h.6l103.8,31.6a2.1,2.1,0,0,1,1.4,1.9v58.8a2.1,2.1,0,0,1-.8,1.6A2.8,2.8,0,0,1,536.6,611.4Z"/><path class="cls-3" d="M432.8,519l103.8,31.6v58.8L423.7,573.2l9.1-54.2m0-4a3.7,3.7,0,0,0-2.1.6,4,4,0,0,0-1.9,2.8l-9,54.2a4,4,0,0,0,2.7,4.4l112.9,36.2,1.2.2a4.3,4.3,0,0,0,2.4-.8,4.2,4.2,0,0,0,1.6-3.2V550.6a4,4,0,0,0-2.8-3.8L433.9,515.2l-1.1-.2Z"/></g><g id="Form_5" data-name="Form 5"><path class="cls-1" d="M586.3,618.1H586l-61-9a2.2,2.2,0,0,1-1.3-.8,2.8,2.8,0,0,1-.4-1.5l9.6-58.7a2,2,0,0,1,2-1.7h.2l67.2,6.8a1.7,1.7,0,0,1,1.4.8,2.5,2.5,0,0,1,.3,1.7l-15.8,60.9A1.9,1.9,0,0,1,586.3,618.1Z"/><path class="cls-3" d="M534.9,548.4l67.2,6.8-15.8,60.9-61-9,9.6-58.7m0-4a4,4,0,0,0-4,3.3l-9.5,58.8a4.1,4.1,0,0,0,.7,3,3.9,3.9,0,0,0,2.6,1.5l61,9.1h.6a3.9,3.9,0,0,0,3.8-3l15.8-60.9a4.1,4.1,0,0,0-.5-3.3,4,4,0,0,0-2.9-1.7l-67.2-6.8Z"/></g><g id="Form_1" data-name="Form 1"><path class="cls-1" d="M435.8,524.3l-.8-.2-81.3-33.8a2.2,2.2,0,0,1-1.2-1.6,1.9,1.9,0,0,1,.8-1.9l45.2-33.9a2.1,2.1,0,0,1,1.2-.4h.4a1.9,1.9,0,0,1,1.3,1l36.1,67.7a2,2,0,0,1-.3,2.3A1.6,1.6,0,0,1,435.8,524.3Z"/><path class="cls-3" d="M399.7,454.5l36.1,67.8-81.3-33.9,45.2-33.9m0-4a3.8,3.8,0,0,0-2.4.8l-45.2,33.9a4.4,4.4,0,0,0-1.6,3.7,4.1,4.1,0,0,0,2.5,3.2L434.2,526a4.1,4.1,0,0,0,1.6.3,4,4,0,0,0,3.5-5.9l-36.1-67.7a4.1,4.1,0,0,0-2.7-2.1Z"/></g><g id="Form_3" data-name="Form 3"><path class="cls-1" d="M613.4,561.7h-.3l-80.7-10.1a2,2,0,0,1-1.8-1.6,2.1,2.1,0,0,1,1-2.1l62.7-37.4a1.7,1.7,0,0,1,1-.3l.7.2a2.2,2.2,0,0,1,1.2,1.1l18,47.5a1.7,1.7,0,0,1-.3,1.9A1.9,1.9,0,0,1,613.4,561.7Z"/><path class="cls-3" d="M595.3,512.2l18.1,47.5-80.8-10.1,62.7-37.4m0-4a4.2,4.2,0,0,0-2.1.6l-62.6,37.4a4,4,0,0,0,1.5,7.4l80.8,10h.5a4,4,0,0,0,3.1-1.6,3.9,3.9,0,0,0,.6-3.9L599,510.8a3.9,3.9,0,0,0-2.4-2.3,3.1,3.1,0,0,0-1.3-.3Z"/></g><g id="Form_2" data-name="Form 2"><path class="cls-1" d="M539.9,554.6h-.6L429,524.2a2,2,0,0,1-.5-3.7L504,478.6l1-.2h.6a1.7,1.7,0,0,1,1.2,1l34.9,72.3a2,2,0,0,1-.3,2.1A1.9,1.9,0,0,1,539.9,554.6Z"/><path class="cls-3" d="M505,480.4l34.9,72.2L429.5,522.3,505,480.4m0-4a3.2,3.2,0,0,0-1.9.5l-75.5,41.9a3.9,3.9,0,0,0-2.1,4,4,4,0,0,0,2.9,3.3l110.4,30.4h1.1a3.9,3.9,0,0,0,3-1.4,4.2,4.2,0,0,0,.6-4.3l-34.9-72.3a3.7,3.7,0,0,0-2.4-2,2.5,2.5,0,0,0-1.2-.2Z"/></g></g><g id="Wappen"><g id="Wappen-2" data-name="Wappen"><path class="cls-4" d="M344.6,528.3C287.6,727,267,798.5,396.2,836c126.2,35.9,146.7-35.6,203.2-234.4Z"/></g><g id="Kreuz"><path class="cls-5" d="M457.5,679.8c14.1-48.8,30.6-110.3,30.6-110.3l-31.8-9.1s-21.7,73.7-31.5,110.1c-45.9-13.2-29.6-8.2-110.5-32.1-4,15.7-6.8,30.3-6.8,30.3l108.3,32.6c-13.1,48-35.8,124.5-37.2,129.3a302.7,302.7,0,0,0,32.7,9.4s14.6-49.6,37.7-129.3c81.1,24.1-6.8-2.5,107.2,31.6,3.6-9.6,7.9-21.5,10.4-30C500.3,693.1,502.4,693.1,457.5,679.8Z"/></g><path id="Wappen_Kontur" data-name="Wappen Kontur" class="cls-6" d="M344.6,528.3l254.8,73.3c-56.5,198.8-77,270.3-203.2,234.4C267,798.5,287.6,727,344.6,528.3Z"/><g id="Stern-Sichel"><path class="cls-1" d="M380.7,646.7c-11.1,0-21.1-4.3-27.7-11.8s-8.4-15.2-7.9-25c14.8,17,27.9,23.9,44.7,23.9a79.4,79.4,0,0,0,23.9-4.1A40.3,40.3,0,0,1,380.7,646.7Zm-3.9-24.2c-.1-3.2-.1-6.7-.2-11.8,0-2.9,0-6.3-.1-10.5v-1.3l-1.3-.2c-9.3-.9-12.1-1.1-19.7-1.6h-2l.6-.3c5.2-2.4,12.9-6,17.4-10.4l.8-.7-.5-1c-1.5-2.9-3.3-7.4-5.1-11.7-1.1-2.7-2.2-5.5-3.3-8,1.9,1,2.6,1.2,3.2,1.5s2.1.9,17.4,8.8l1.1.6.8-1c2.4-3.3,9.5-12.9,14.3-19.9-.7,7.9-1.5,18.1-1.9,24.2l-.2,1.5,6.4.4c8.8.7,11.6.9,17.9,1.6l-6.2,3.8c-4.3,2.6-8.4,5-12.2,7.1l-1.2.7.6,1.2c1.8,4,4.1,8.3,6.4,12.3s3,5.4,4.3,8.1l-8.7-4.7-12.9-6.8-1.1-.6-.7,1c-2.5,3.1-5.3,6.8-8.2,10.5Z"/><path d="M398.2,560.3c-.5,6.7-1.1,13.9-1.4,18.7l-.3,3,3,.2,4.9.3,13.4,1.1-2.4,1.5-12.1,7.1-2.4,1.3,1.1,2.6c1.9,4,4.2,8.3,6.5,12.4l2,3.6-4.4-2.3c-4.3-2.3-8.7-4.7-12.9-6.8l-2.2-1.2-1.5,2c-2.4,3-5.4,6.8-8.2,10.5l-3.1,3.9c0-2.1-.1-4.6-.1-7.5s0-6.3-.1-10.5v-2.7l-2.7-.2c-7.6-.8-10.9-1.1-15.9-1.4,4.6-2.3,9.7-5.2,13.1-8.5l1.6-1.5-1-2c-1.5-2.8-3.3-7.3-5-11.5l-1.8-4.5,17,8.7,2.2,1.1,1.6-2c2.4-3.3,7.1-9.6,11.1-15.4m-51.6,53.4c13.9,15.1,27.2,21.6,43.2,21.6a77.3,77.3,0,0,0,19.8-2.8,39,39,0,0,1-28.9,12.7c-10.6,0-20.3-4.2-26.6-11.3a31.3,31.3,0,0,1-7.5-20.2m55.6-64.5c-3.6,5.9-13.2,18.8-17.5,24.7-25.2-13-11.5-5.7-24.4-12.2,3,5.9,7.1,17.6,10.1,23.6-6.5,6.4-20.8,11.2-22.2,12.8,13.9,1,15.1.9,26.8,2.1.2,14.9.1,20.2.4,26.4,4.9-6.1,11.6-14.8,16.4-21,8.4,4.3,17.3,9.3,25.7,13.6-3.6-7.9-9.2-16.5-12.8-24.4,6.7-3.7,14.5-8.7,22.2-13.1-11-1.4-12.2-1.4-27.1-2.5.6-7.9,1.7-22.2,2.4-30Zm-58.2,57c-3.6,27.1,16,42,36.7,42a41.4,41.4,0,0,0,35-18.9,11.5,11.5,0,0,0,.1-1.9c-9.8,3.3-18.4,4.9-26,4.9-18.6,0-31.9-9.3-45.8-26.1Z"/></g></g></g></svg>