<svg xmlns="http://www.w3.org/2000/svg" viewBox="0 0 125.7 60.4"><defs><style>.a{fill:none;}.b,.c{fill:#1d1d1b;}.c{fill-rule:evenodd;}</style></defs><title>wave</title><rect class="a" x="-9.7" y="-8.8" width="140" height="80"/><polygon class="b" points="33.3 23 36.4 23 33.3 26.1 30.2 26.1 33.3 23 33.3 23 33.3 23"/><polygon class="b" points="29.1 23 32.2 23 29.1 26.1 26 26.1 29.1 23 29.1 23 29.1 23"/><polygon class="b" points="40.2 23 37.1 23 40.2 26.1 43.3 26.1 40.2 23 40.2 23 40.2 23"/><polygon class="b" points="44.3 23 41.3 23 44.4 26.1 47.5 26.1 44.3 23 44.3 23 44.3 23"/><path class="c" d="M42.5,14.2A18.3,18.3,0,0,0,43.4,9l5.5,1.3c-.4,6.5-5.2,12.1-12.4,12.1S25.3,15,25.7,9.7l2.4-.4a9,9,0,0,0,1.2,6.2,6.5,6.5,0,0,1,6.5-7.8,6.5,6.5,0,0,1,6.7,6.5Zm-11.1.2a4.4,4.4,0,1,1,4.4,4.3,4.4,4.4,0,0,1-4.4-4.3Z"/><path class="a" d="M45.4,1.2A68.4,68.4,0,0,1,63.9,6.9c12.8,5.7,23.6,7.4,35.7,4.8-6.1-1.2-13.9-3.4-25.2-7.4A59.9,59.9,0,0,0,45.4,1.2Z"/><path class="a" d="M33,31.6a69.4,69.4,0,0,1,17.3,5.3c12,5.5,22.6,8.1,35.8,5.3C80,41.1,72.1,39,60.9,35A60.9,60.9,0,0,0,33,31.6Z"/><path class="b" d="M120.7,11.5l-1.9.2a67.7,67.7,0,0,1-16.2-.1,116.9,116.9,0,0,0,22.5-9.4l-.3-.6c-8.9,4.8-16.6,8-23.7,9.7-6.2-1-14.4-3.2-26.5-7.6A60.8,60.8,0,0,0,43.3.9C35.9,0,29.6.6,23.4,1.3L18,1.7v.6l5.4-.5c5.6-.5,11.3-1.1,17.8-.5-8.9,1.8-18,5.5-28,11.1l.2.6,5-.4,4-.4c0-.2-.1-.4-.1-.6l-4,.4-3.5.3C25,6.7,34.4,3.1,43.3,1.5A68.5,68.5,0,0,1,63.7,7.4c13.4,6,24.6,7.6,37.4,4.5a59.4,59.4,0,0,0,17.7.4h.6a105,105,0,0,1-20.3,9.1c-6.5-.8-15.1-2.9-28.6-7.7A65.7,65.7,0,0,0,52.3,9.8v.6a63.7,63.7,0,0,1,17.9,3.8c12.7,4.5,21,6.6,27.4,7.5-13.2,3.7-24.5,2.2-38.1-3.9-2.7-1.2-5.3-2.2-7.7-3.1l-.2.6a74.5,74.5,0,0,1,7.6,3c14.3,6.4,26,7.8,39.9,3.6a60.1,60.1,0,0,0,14.8-.2h1.4c-8.6,4.8-16.2,8.2-23.3,10-6.3-.9-14.4-3.1-26.4-7.3a65.2,65.2,0,0,0-17.5-3.7l-.6.6a63.3,63.3,0,0,1,17.9,3.6c11.2,4,19,6.1,25.1,7.2-12.3,2.9-23.2,1.4-35.8-4.2l-4.6-2,.4.8,4,1.7c13.1,6,24.5,7.4,37.6,4a66.1,66.1,0,0,0,17.2.1h1.3c-8.7,4.8-16.2,7.9-23,9.6-6.3-1-14.5-3.1-26.6-7.5a62.1,62.1,0,0,0-30.4-3.1c-7.1-.8-13.3-.1-19.3.6l-5,.5A115.2,115.2,0,0,1,22.7,25l.5-.8A109.3,109.3,0,0,0,4.8,32.6l.3.5,6.4-.6c5.3-.6,10.8-1.3,16.9-.8C19.4,33.4,10.1,37,0,42.8l.3.5c10.8-6.2,20.8-9.9,30.4-11.4A66.4,66.4,0,0,1,50,37.5c12.3,5.5,23.5,8.2,37.5,4.9,7.3,1.2,12.1.7,17.4.2l2.7-.2v-.6l-2.7.2a59.4,59.4,0,0,1-15.8,0c6.9-1.7,14.4-4.9,23.2-9.9l-.2-.6-2.8.3a58.7,58.7,0,0,1-15.7,0c7.1-2,14.7-5.4,23.3-10.4l-.2-.5-2.8.2a63.9,63.9,0,0,1-13.3.3A108.6,108.6,0,0,0,121,12ZM63.9,6.9A68.4,68.4,0,0,0,45.4,1.2a59.9,59.9,0,0,1,29,3.1c11.3,4,19.1,6.2,25.2,7.4C87.5,14.3,76.7,12.6,63.9,6.9Zm-13.6,30A69.4,69.4,0,0,0,33,31.6,60.9,60.9,0,0,1,60.9,35c11.2,4,19.1,6.1,25.2,7.2C72.9,45,62.3,42.4,50.3,36.9Z"/><path class="b" d="M22.9,15.2A115.6,115.6,0,0,0,9.1,21.9l.2.6,4-.3a105.3,105.3,0,0,1,12.6-.7l.3-.3-.3-.3a105.8,105.8,0,0,0-12.7.7l-2.5.2a93.6,93.6,0,0,1,12.4-6Z"/><path class="b" d="M4.4,56.2H6.6v.6H5.2v1.1H6.5v.6H5.2v1.3H6.7v.6H4.4Z"/><path class="b" d="M7.5,56h.8v.7H7.5Zm0,1.3h.8v3.1H7.5Z"/><path class="b" d="M9.2,57.8v-.5h.7v.5h0a1.1,1.1,0,0,1,.9-.6c.7,0,.9.6.9,1.2v2h-.8V58.5c0-.5-.1-.7-.4-.7s-.5.4-.5.8v1.8H9.2Z"/><path class="b" d="M14.3,59.6l.9.2c.4,0,.7-.2.7-.6s-.2-.4-.6-.6l-.4-.2a1.4,1.4,0,0,1-.7-1.1,1.3,1.3,0,0,1,1.4-1.2,1.3,1.3,0,0,1,.8.2v.6a1.5,1.5,0,0,0-.8-.2c-.4,0-.6.2-.6.5a.6.6,0,0,0,.5.6l.4.2a1.3,1.3,0,0,1,.8,1.2,1.3,1.3,0,0,1-1.4,1.2c-.5,0-.8,0-1-.2Z"/><path class="b" d="M19.6,60.2a1.4,1.4,0,0,1-.9.2,1.3,1.3,0,0,1-1.4-1.5c0-1,.5-1.7,1.3-1.7s1.2.4,1.2,1.7H18c0,.6.2.9.8.9a1,1,0,0,0,.8-.3Zm-.5-1.6c0-.6-.2-.9-.5-.9s-.6.4-.6.9Z"/><path class="b" d="M20.6,57.8v-.5h.6a4.3,4.3,0,0,0,.1.5h0a.9.9,0,0,1,.8-.6h.1v.6H22a.7.7,0,0,0-.7.8v1.7h-.7Z"/><path class="b" d="M22.6,57.3h.8l.6,2.4h0l.6-2.4h.8l-1,3.1h-.9Z"/><path class="b" d="M26,56h.8v.7H26Zm0,1.3h.8v3.1H26Z"/><path class="b" d="M29.8,60.3h-.7c-1.1,0-1.5-.7-1.5-1.6a1.4,1.4,0,0,1,1.5-1.6l.7.2v.5h-.5c-.6,0-.8.4-.8,1s.3,1.1.8,1.1l.6-.2Z"/><path class="b" d="M32.7,60.2l-.9.2a1.3,1.3,0,0,1-1.4-1.5c0-1,.5-1.7,1.2-1.7s1.3.4,1.3,1.7H31.1c0,.6.2.9.8.9a1.5,1.5,0,0,0,.8-.3Zm-.5-1.6q0-.9-.6-.9c-.4,0-.5.4-.5.9Z"/><path class="b" d="M37.9,55.9v3.9c0,.3,0,.5.1.6h-.7a.7.7,0,0,1-.1-.5h0c-.1.3-.3.5-.8.5s-1.1-.7-1.1-1.6.4-1.6,1.1-1.6a1,1,0,0,1,.8.5h0V55.9Zm-1.3,4c.4,0,.6-.5.6-1.1s-.2-1-.6-1-.5.4-.5,1S36.2,59.9,36.6,59.9Z"/><path class="b" d="M41.1,60.2l-.9.2a1.4,1.4,0,0,1-1.5-1.5c0-1,.5-1.7,1.3-1.7s1.2.4,1.2,1.7H39.4c0,.6.3.9.8.9a1,1,0,0,0,.8-.3Zm-.6-1.6c0-.6-.2-.9-.5-.9s-.6.4-.6.9Z"/><path class="b" d="M42,57.8v-.5h.7v.5h0a.9.9,0,0,1,.8-.6h.1v.6h-.2c-.3,0-.6.2-.6.8v1.7H42Z"/><path class="b" d="M46.1,56.2h1.1a1.8,1.8,0,0,1,2,2.1,1.9,1.9,0,0,1-2,2.1H46.1Zm.8,3.6h.3c.8,0,1.2-.6,1.2-1.5s-.4-1.5-1.2-1.5h-.3Z"/><path class="b" d="M52.2,60.2l-.9.2a1.3,1.3,0,0,1-1.4-1.5c0-1,.4-1.7,1.2-1.7s1.3.4,1.3,1.7H50.6c0,.6.2.9.8.9a1.5,1.5,0,0,0,.8-.3Zm-.6-1.6c0-.6-.1-.9-.5-.9s-.5.4-.5.9Z"/><path class="b" d="M55.6,59.9v.5h-.7v-.5h0a1.1,1.1,0,0,1-.9.5c-.7,0-.9-.5-.9-1.1v-2h.8v1.8c0,.5.1.7.4.7s.5-.4.5-.7V57.3h.8Z"/><path class="b" d="M56.7,56.6l.8-.2v.9h.6v.5h-.6v1.6c0,.4.1.5.3.5h.3v.5h-.5c-.6,0-.9-.2-.9-.9V57.8h-.5v-.5h.5Z"/><path class="b" d="M58.7,59.6a1.1,1.1,0,0,0,.7.3c.3,0,.5-.1.5-.4s-.1-.2-.3-.3l-.3-.2c-.3-.2-.7-.4-.7-.9a1,1,0,0,1,1.1-.9l.8.2v.5h-.6c-.3,0-.5.1-.5.3s.2.3.4.4l.4.2c.3.3.5.4.5.8s-.5.9-1.1.9h-.9Z"/><path class="b" d="M63.5,60.3h-.8c-1,0-1.4-.7-1.4-1.6s.4-1.6,1.5-1.6l.6.2v.5h-.5c-.6,0-.8.4-.8,1s.2,1.1.8,1.1l.5-.2Z"/><path class="b" d="M64.1,55.9h.8v1.8h0a.8.8,0,0,1,.8-.5c.7,0,.9.6.9,1.2v2h-.8V58.5c0-.5-.1-.7-.4-.7s-.5.4-.5.8v1.8h-.8Z"/><path class="b" d="M69.7,60.2l-.9.2a1.4,1.4,0,0,1-1.5-1.5c0-1,.5-1.7,1.3-1.7s1.3.4,1.3,1.7H68.1c0,.6.2.9.7.9a1.6,1.6,0,0,0,.9-.3Zm-.6-1.6c0-.6-.2-.9-.5-.9s-.5.4-.5.9Z"/><path class="b" d="M70.6,57.8v-.5h.7v.5h0a.9.9,0,0,1,.8-.6c.8,0,1,.6,1,1.2v2h-.8V58.5c0-.5-.1-.7-.4-.7s-.5.4-.5.8v1.8h-.8Z"/><path class="b" d="M75.7,56.2h1.2a1.2,1.2,0,0,1,1.4,1.3c0,.7-.5,1.2-1.4,1.2h-.4v1.7h-.8Zm1.1,1.9c.5,0,.7-.2.7-.6s-.2-.7-.7-.7h-.3v1.3Z"/><path class="b" d="M80.1,57.2c.6,0,1.3.4,1.3,1.6s-.7,1.6-1.3,1.6-1.4-.3-1.4-1.6S79.4,57.2,80.1,57.2Zm0,2.7c.5,0,.6-.6.6-1.1s-.1-1-.6-1-.6.5-.6,1S79.6,59.9,80.1,59.9Z"/><path class="b" d="M82.1,59.6a1.9,1.9,0,0,0,.8.3c.3,0,.5-.1.5-.4s-.1-.2-.3-.3l-.3-.2c-.4-.2-.7-.4-.7-.9a1,1,0,0,1,1.1-.9c.4,0,.7.1.7.2v.5h-.7c-.3,0-.4.1-.4.3s.1.3.4.4l.3.2c.4.3.6.4.6.8s-.5.9-1.1.9h-.9Z"/><path class="b" d="M85.1,56.6l.8-.2v.9h.6v.5h-.6v1.6c0,.4.1.5.3.5h.3v.5H86c-.6,0-.9-.2-.9-.9V57.8h-.5v-.5h.5Z"/><path class="b" d="M5.6,47H7.2a2.2,2.2,0,0,1,2.5,2.4c0,1.3-.6,3.2-3.4,3.2H4.4Zm.1,4.7h.5a2.2,2.2,0,0,0,2.4-2.4c0-.9-.7-1.4-1.7-1.4H6.5Z"/><path class="b" d="M11.4,47h1.2l-1.2,5.6H10.3Z"/><path class="b" d="M15.6,47h1.2l1.1,5.6H16.7l-.2-1.3H14.2l-.7,1.3H12.2Zm-.9,3.5h1.7L16,48h0Z"/><path class="b" d="M19.9,47H21l-1,4.7h2.2l-.2.9H18.7Z"/><path class="b" d="M28.3,49.3a3.9,3.9,0,0,1-1,2.5,3,3,0,0,1-2.3.9,2.1,2.1,0,0,1-2.2-2.3,3.4,3.4,0,0,1,.9-2.4A2.8,2.8,0,0,1,26,46.9,2.1,2.1,0,0,1,28.3,49.3Zm-4.4,1.2a1.2,1.2,0,0,0,1.2,1.3c1.3,0,2-1.5,2-2.6s-.4-1.4-1.2-1.4S23.9,49.3,23.9,50.5Z"/><path class="b" d="M34,48.2a2.4,2.4,0,0,0-1.5-.4,2.2,2.2,0,0,0-2.2,2.4,1.5,1.5,0,0,0,1.5,1.6h.6l.3-1.5H31.5l.2-.9H34l-.7,3.1-1.5.2c-1.6,0-2.7-.7-2.7-2.5a3.1,3.1,0,0,1,3.3-3.3,5.8,5.8,0,0,1,1.9.3Z"/><path class="b" d="M35.8,52.6H34.7L35.8,47h1c1,0,2.4.1,2.4,1.5a2.1,2.1,0,0,1-2.3,2h-.7Zm.6-3h.4c.6,0,1.3-.3,1.3-1s-.5-.7-1-.7h-.3Z"/><path class="b" d="M45.2,49.3a3.8,3.8,0,0,1-.9,2.5,3.4,3.4,0,0,1-2.4.9,2.1,2.1,0,0,1-2.2-2.3,3.4,3.4,0,0,1,.9-2.4,3,3,0,0,1,2.3-1.1A2.1,2.1,0,0,1,45.2,49.3Zm-4.3,1.2c0,.7.3,1.3,1.1,1.3s2-1.5,2-2.6-.4-1.4-1.2-1.4S40.9,49.3,40.9,50.5Z"/><path class="b" d="M49.6,48.1a2.7,2.7,0,0,0-1.2-.3c-.4,0-.9.2-.9.7s1.9.8,1.9,2.3-1.1,1.9-2.3,1.9a4.1,4.1,0,0,1-1.6-.3l.3-1a3.3,3.3,0,0,0,1.3.4c.6,0,1.1-.2,1.1-.8s-1.9-.9-1.9-2.4,1-1.7,2.1-1.7a3.2,3.2,0,0,1,1.4.3Z"/><path class="b" d="M50.9,47h4.3v.9H53.5l-1,4.7H51.3l1-4.7H50.7Z"/></svg>